<svg version="1.0" xmlns="http://www.w3.org/2000/svg"
  viewBox="0 0 779.272841 1200.435714"
 preserveAspectRatio="xMidYMid meet">
<metadata>
For more coloring pages, please visit ColoringAll.com
</metadata>
<g transform="translate(-1.195065,1200.707607) scale(0.100000,-0.100000)"
fill="#000000" stroke="none">
<path d="M3535 11999 c-159 -19 -402 -100 -547 -183 -119 -67 -207 -137 -310
-245 -283 -294 -427 -696 -428 -1190 0 -452 123 -761 426 -1065 248 -249 542
-404 859 -453 154 -23 443 -21 571 5 268 54 495 168 690 344 308 279 429 552
464 1046 29 415 -59 775 -264 1077 -77 114 -261 299 -386 387 -107 76 -276
164 -393 203 -201 67 -482 98 -682 74z m408 -94 c134 -20 206 -40 316 -86 413
-176 695 -466 844 -869 61 -165 70 -234 65 -485 -5 -216 -6 -222 -38 -315
-145 -424 -451 -735 -850 -864 -163 -53 -213 -60 -460 -60 -239 0 -292 7 -461
65 -101 34 -306 144 -399 213 -105 79 -267 246 -338 348 -110 160 -195 369
-228 561 -12 70 -15 135 -11 267 4 160 7 185 36 285 141 483 525 833 1017 929
105 21 127 23 279 24 72 1 173 -5 228 -13z m-1579 -1720 c32 -93 115 -269 174
-369 23 -38 39 -73 36 -78 -3 -4 -16 -8 -29 -8 -18 0 -23 4 -19 15 8 19 -6 19
-33 0 -21 -14 -23 -14 -37 7 -21 35 -84 209 -100 280 -8 35 -17 90 -21 123 -3
33 -8 76 -11 95 -8 54 9 25 40 -65z m2780 -267 c-39 -126 -124 -306 -189 -403
-70 -105 -173 -231 -182 -222 -2 3 5 26 15 53 11 27 24 66 30 87 17 61 -6 41
-54 -48 -47 -87 -55 -93 -24 -20 27 62 62 111 165 230 96 111 184 238 210 303
18 43 42 60 29 20z m-2506 -240 c-3 -7 -16 -20 -31 -28 -21 -12 -29 -12 -39
-2 -9 9 -8 15 8 27 24 18 67 20 62 3z m-18 -78 c0 -13 -48 -36 -56 -27 -4 4
-1 13 6 22 14 17 50 20 50 5z m97 -6 c2 -7 -10 -17 -28 -23 -48 -17 -55 -13
-29 14 24 26 50 30 57 9z m-57 -84 c-33 -26 -52 -25 -21 0 13 11 28 20 35 20
6 0 0 -9 -14 -20z m143 5 c-2 -11 -82 -37 -97 -32 -5 2 6 13 25 25 34 22 76
26 72 7z m85 -67 c19 -19 14 -28 -13 -28 -14 0 -48 -9 -77 -20 -29 -11 -55
-20 -57 -20 -12 0 39 45 69 61 41 21 62 23 78 7z m-167 -18 c-13 -11 -28 -20
-35 -20 -6 1 0 10 13 20 13 11 28 20 35 20 6 -1 0 -10 -13 -20z m155 -63 c-40
-22 -58 -47 -35 -47 18 0 99 49 99 60 0 16 36 12 50 -5 16 -19 17 -18 -53 -44
-67 -24 -135 -27 -163 -7 -24 18 -17 24 48 47 76 26 103 24 54 -4z m1747 -57
c-46 -80 -96 -146 -100 -133 -9 26 88 183 113 183 12 0 9 -11 -13 -50z m43
-84 c-11 -26 -34 -48 -83 -80 -86 -55 -220 -122 -229 -113 -8 7 96 164 130
197 l25 22 -14 -47 c-15 -48 -7 -85 17 -85 19 0 90 83 128 148 l35 60 3 -33
c2 -18 -4 -49 -12 -69z m-1536 63 c0 -9 -78 -51 -127 -70 -24 -9 -25 -8 -13 8
7 10 31 34 53 55 35 31 43 35 64 25 12 -5 23 -14 23 -18z m-120 12 c0 -5 -20
-26 -45 -46 -35 -29 -50 -36 -70 -31 -40 10 -29 31 33 59 61 28 82 33 82 18z
m225 -61 c-9 -15 -105 -62 -117 -58 -14 5 83 67 105 68 10 0 15 -5 12 -10z
m1196 -8 c-14 -27 -100 -142 -106 -142 -7 0 42 98 67 133 22 31 55 39 39 9z
m-1051 -37 c0 -6 -108 -60 -140 -70 -22 -6 -23 -6 -10 8 34 35 150 83 150 62z
m-209 -66 c-28 -25 -52 -39 -65 -37 -39 6 -22 32 34 55 77 31 82 28 31 -18z
m279 26 c0 -2 -12 -11 -27 -19 -16 -8 -53 -35 -83 -61 -50 -44 -57 -47 -98
-42 -44 5 -60 12 -49 23 9 10 231 104 245 104 6 0 12 -2 12 -5z m700 -1 c0 -3
-23 -31 -50 -62 -56 -63 -50 -81 10 -33 l40 32 -32 -53 c-17 -29 -37 -63 -44
-75 -10 -16 -29 -24 -86 -32 -40 -7 -89 -14 -108 -17 -33 -6 -30 -1 73 96 59
56 107 106 107 111 0 19 -21 8 -81 -43 -130 -110 -138 -116 -89 -64 68 72 118
108 174 128 52 18 86 23 86 12z m-605 -13 c-8 -14 -185 -114 -191 -108 -7 7
53 51 117 87 54 30 85 38 74 21z m69 -33 c-90 -110 -143 -148 -191 -141 -18 3
-33 9 -33 14 0 11 73 60 162 109 40 22 75 40 77 40 2 0 -4 -10 -15 -22z m121
14 c-6 -5 -28 -19 -50 -31 l-40 -23 33 31 c18 17 40 31 49 31 10 0 13 -3 8 -8z
m145 4 c0 -2 -18 -15 -41 -30 -35 -24 -39 -25 -30 -7 6 11 19 25 29 30 17 10
42 14 42 7z m403 -43 c-28 -86 -35 -95 -90 -114 -29 -10 -53 -14 -53 -9 0 7
148 170 155 170 1 0 -4 -21 -12 -47z m-389 -5 c-64 -78 -151 -158 -171 -158
-31 0 -36 14 -12 36 23 21 192 143 198 144 2 0 -4 -10 -15 -22z m-173 -27
c-17 -32 -122 -121 -142 -121 -26 0 -24 12 9 42 24 22 132 98 140 98 1 0 -2
-8 -7 -19z M3592 11299 c-170 -22 -299 -86 -428 -214 -103 -101 -148 -177
-186 -312 -44 -159 -22 -369 56 -528 182 -371 600 -557 1024 -455 243 58 443
251 508 490 28 102 25 294 -5 390 -48 155 -121 270 -243 385 -96 91 -201 154
-321 196 -124 43 -294 63 -405 48z m353 -103 c158 -54 307 -158 413 -291 115
-142 145 -231 146 -430 1 -124 -18 -260 -34 -250 -4 2 -10 39 -14 82 -25 278
-163 498 -381 603 -126 61 -188 74 -340 67 -212 -8 -325 -57 -471 -202 -104
-103 -147 -179 -184 -320 -19 -70 -25 -83 -34 -68 -15 28 -20 289 -6 356 43
209 253 411 490 473 39 9 97 13 195 10 120 -3 152 -7 220 -30z m17 -316 c146
-45 289 -172 363 -324 59 -118 79 -211 72 -336 -6 -120 -25 -167 -90 -225
-184 -166 -473 -216 -733 -126 -162 55 -353 200 -408 310 -24 47 -26 60 -26
184 0 134 0 134 36 206 65 129 201 250 345 306 58 22 79 24 220 25 129 0 168
-4 221 -20z M4978 9655 c-15 -22 -34 -59 -42 -82 -13 -38 -13 -43 0 -43 18 0
77 121 72 147 -3 14 -10 9 -30 -22z M5470 11515 c0 -3 31 -50 70 -103 137
-191 192 -417 160 -668 -15 -127 -21 -136 -70 -133 -55 4 -59 -6 -11 -31 27
-13 41 -27 41 -40 0 -29 -62 -216 -114 -345 -45 -112 -45 -146 1 -89 29 37
101 200 142 327 35 104 40 108 94 81 83 -42 117 -69 117 -93 0 -14 -23 -83
-51 -154 -28 -71 -48 -132 -44 -135 12 -12 54 51 101 155 35 76 52 103 66 103
22 0 119 -97 187 -188 90 -119 136 -223 191 -427 l22 -80 -47 -42 c-26 -24
-86 -67 -133 -96 -85 -53 -109 -77 -77 -77 25 0 132 53 189 94 27 19 53 33 58
30 5 -3 5 -48 2 -100 -6 -84 -5 -94 10 -94 23 0 34 35 46 143 13 114 25 159
50 189 l19 23 1 -40 c0 -23 -7 -95 -15 -160 -17 -138 -18 -175 -6 -175 23 0
43 99 66 341 8 86 22 178 30 205 8 27 15 59 15 72 0 35 -27 26 -40 -14 -7 -20
-16 -32 -21 -27 -4 4 -20 49 -34 98 -33 115 -81 225 -127 295 -46 69 -130 158
-135 143 -3 -7 25 -57 61 -111 82 -124 131 -230 162 -351 32 -126 32 -206 -1
-246 -30 -37 -34 -32 -71 80 -14 44 -53 135 -85 203 -58 120 -64 128 -189 256
l-130 133 16 84 c8 46 15 140 15 209 0 136 -19 237 -65 334 -20 43 -24 47 -25
25 -1 -14 8 -68 19 -120 29 -132 34 -262 17 -392 -8 -59 -17 -110 -20 -113 -9
-10 -177 78 -188 98 -5 10 -8 26 -5 36 3 9 10 61 16 116 18 176 -20 428 -85
555 -49 97 -195 258 -195 216z M1997 9607 c-70 -76 -177 -469 -177 -653 0 -22
-3 -55 -6 -75 l-6 -36 -88 -6 c-49 -3 -99 -12 -112 -19 -20 -12 -12 -14 82
-19 58 -4 110 -7 117 -8 6 0 21 -45 33 -98 23 -101 56 -191 66 -180 4 3 1 60
-6 127 -7 67 -10 123 -7 126 10 10 152 -63 213 -109 129 -98 208 -222 264
-414 23 -80 40 -95 40 -35 0 50 -23 137 -62 229 -54 130 -190 258 -372 349
l-101 50 3 110 c5 193 45 396 114 568 21 54 37 103 35 110 -2 6 -15 -2 -30
-17z M5649 9331 c-54 -18 -166 -83 -244 -141 -149 -113 -298 -245 -340 -302
-165 -223 -165 -579 0 -1067 19 -58 33 -107 30 -109 -12 -13 -113 32 -385 171
-469 241 -496 252 -691 294 -126 27 -329 24 -434 -5 -166 -48 -272 -127 -332
-250 -37 -73 -38 -80 -37 -176 0 -118 20 -181 90 -286 40 -62 130 -156 182
-192 l24 -16 -77 -174 c-430 -966 -675 -1955 -775 -3123 -26 -307 -24 -293
-58 -300 -107 -22 -144 -46 -173 -109 -35 -77 -19 -164 41 -230 l39 -43 -62
-46 c-34 -25 -96 -80 -137 -121 -41 -42 -77 -76 -81 -76 -3 0 0 24 8 52 19 72
133 590 183 827 40 194 41 221 6 221 -39 1 -38 13 9 231 26 118 62 290 81 383
l34 168 -27 32 c-39 47 -53 88 -53 160 l0 65 -82 25 c-151 46 -343 82 -376 71
-28 -8 -36 -33 -97 -310 -75 -338 -126 -533 -195 -749 -78 -243 -113 -339
-126 -343 -5 -2 -77 54 -160 124 -231 196 -447 353 -745 539 l-154 96 -85 -7
c-198 -14 -428 -57 -437 -81 -8 -20 22 -51 162 -164 395 -319 910 -681 1180
-830 72 -39 136 -77 143 -84 10 -10 9 -28 -3 -96 -8 -47 -15 -106 -15 -131 0
-56 21 -79 103 -109 32 -12 60 -27 63 -34 3 -7 -56 -256 -131 -554 -74 -298
-135 -548 -135 -556 0 -26 335 -136 415 -136 52 0 63 12 110 114 20 43 37 77
40 75 2 -2 8 -83 14 -179 5 -96 17 -209 26 -250 66 -315 211 -596 402 -781 78
-75 90 -92 102 -139 49 -192 207 -369 426 -477 147 -73 169 -78 365 -77 162 1
181 3 260 29 108 35 179 71 257 129 95 72 176 167 228 267 l46 89 382 0 382 0
77 -26 c42 -14 88 -34 101 -44 15 -12 36 -53 56 -109 41 -114 90 -190 174
-268 153 -143 407 -212 670 -184 282 30 439 139 588 408 l51 93 54 0 c79 0
201 28 258 58 26 15 74 55 106 89 84 92 130 188 170 350 10 41 13 43 68 58
307 85 437 132 488 177 l34 30 0 133 c0 119 -2 135 -21 159 -16 21 -29 26 -63
26 -77 0 -87 37 -21 76 25 14 50 34 55 44 27 51 -7 133 -59 145 -22 5 -33 14
-37 31 -9 36 3 72 29 85 47 24 77 62 77 96 0 34 -9 47 -78 105 -36 30 -41 64
-17 121 23 54 19 95 -15 146 -21 33 -36 81 -55 170 -54 254 -158 504 -272 656
-120 158 -360 371 -534 472 l-77 44 5 62 c7 83 -10 141 -56 189 -29 32 -46 41
-81 45 -39 4 -57 -1 -135 -41 -49 -25 -92 -43 -95 -38 -4 4 -17 133 -29 287
-35 442 -83 862 -197 1753 -30 239 -54 438 -52 444 2 6 51 -25 108 -69 400
-304 636 -399 866 -348 170 37 403 148 534 252 280 224 350 479 254 913 -110
492 -374 956 -795 1394 -339 353 -655 578 -952 678 -79 26 -110 31 -217 34
-69 2 -137 0 -151 -5z m235 -76 c208 -39 568 -258 861 -522 430 -388 751 -886
910 -1409 98 -322 87 -584 -30 -769 -47 -74 -161 -176 -268 -240 -112 -67
-331 -165 -368 -165 -20 0 -37 12 -64 46 -20 25 -35 47 -32 50 3 3 43 -7 90
-22 130 -42 149 -22 67 72 -27 31 -50 60 -50 64 0 9 48 -1 140 -30 78 -24 130
-26 130 -6 0 21 -42 68 -90 101 -22 15 -39 29 -37 31 1 2 38 -8 82 -22 49 -16
82 -21 88 -15 12 12 -26 31 -113 59 -100 31 -116 33 -130 17 -10 -12 -3 -24
39 -68 28 -30 51 -56 51 -59 0 -3 -34 5 -75 18 -89 28 -165 32 -165 9 0 -9 21
-38 47 -66 25 -27 44 -52 40 -55 -3 -3 -35 4 -72 15 -37 12 -82 21 -101 21
-48 0 -45 -25 11 -92 25 -30 45 -60 45 -66 0 -34 -133 -21 -225 22 -39 18 -61
36 -81 68 -15 23 -47 65 -71 92 -53 59 -55 75 -5 44 96 -59 188 -108 205 -108
49 0 24 70 -64 178 -27 34 -47 62 -44 62 3 0 56 -23 117 -51 184 -84 208 -69
102 63 -37 45 -72 89 -78 97 -6 7 18 -5 53 -28 35 -22 70 -41 77 -41 26 0 1
30 -57 69 -100 67 -161 76 -144 21 6 -18 57 -88 114 -154 16 -18 15 -18 -24
-1 -125 55 -154 65 -192 65 -28 0 -43 -4 -43 -12 0 -7 32 -56 70 -108 39 -52
70 -96 70 -98 0 -2 -17 6 -37 19 -88 52 -147 79 -173 79 -53 0 -49 -23 22
-118 22 -30 37 -56 34 -59 -7 -7 -139 71 -193 114 -34 27 -43 41 -43 66 0 18
-14 55 -30 82 -16 28 -30 54 -30 58 0 5 19 -4 43 -18 23 -15 66 -38 95 -52 49
-23 55 -24 70 -10 14 15 14 20 -2 56 -10 21 -35 65 -57 97 -21 32 -36 60 -34
62 2 3 39 -16 82 -41 115 -67 146 -79 168 -63 17 12 17 15 -3 58 -12 24 -42
68 -67 97 -25 29 -45 55 -45 58 0 4 97 -48 135 -74 25 -17 35 -17 35 2 0 36
-200 136 -227 113 -16 -13 -8 -32 54 -115 29 -40 53 -75 53 -77 0 -2 -49 21
-110 52 -100 52 -111 55 -126 41 -14 -15 -14 -20 1 -54 8 -21 33 -67 55 -102
22 -35 38 -63 35 -63 -3 0 -44 20 -91 45 -46 25 -94 45 -104 45 -31 0 -25 -48
15 -110 44 -71 26 -78 -53 -19 -79 59 -457 439 -520 524 l-52 70 5 60 c5 46 1
76 -15 128 -12 38 -20 71 -17 73 2 2 33 -18 68 -45 117 -90 140 -71 103 90
-17 76 -14 91 14 66 10 -9 33 -23 52 -31 42 -17 70 -6 70 29 0 29 -18 43 -26
21 -9 -23 -21 -20 -74 19 -93 68 -125 36 -90 -91 12 -43 25 -84 28 -92 2 -8
-26 7 -63 33 -47 32 -76 45 -94 43 -35 -4 -37 -26 -12 -129 11 -46 18 -85 16
-88 -9 -8 -54 41 -104 113 -53 78 -116 186 -108 186 3 0 22 -9 42 -21 19 -12
42 -18 50 -15 21 8 19 65 -6 153 -11 41 -19 78 -17 84 2 5 20 -2 40 -16 64
-44 72 -38 83 68 4 37 9 67 12 67 2 0 30 -21 61 -46 113 -92 136 -86 102 30
-13 42 -20 79 -16 83 3 4 26 -12 49 -35 48 -47 75 -57 56 -19 -23 44 -78 104
-110 120 -64 30 -79 -6 -45 -105 13 -37 22 -68 19 -68 -3 0 -22 15 -44 33 -49
43 -114 64 -136 45 -12 -10 -14 -26 -10 -75 l6 -63 -39 20 c-22 11 -46 20 -55
20 -21 0 -19 -44 5 -142 12 -44 19 -85 16 -92 -7 -18 -166 154 -166 179 0 13
7 39 15 59 14 32 14 43 0 102 -22 96 -20 103 21 56 19 -23 42 -42 50 -42 27 0
30 66 8 205 l-6 40 75 -73 c109 -108 142 -88 98 58 -12 37 -21 71 -21 76 0 4
28 -19 62 -52 36 -34 63 -54 66 -46 8 24 -121 162 -153 162 -24 0 -28 -45 -12
-117 8 -38 13 -70 11 -72 -3 -3 -33 24 -68 58 -90 89 -101 83 -93 -50 l5 -100
-44 41 c-72 67 -88 41 -56 -87 32 -125 33 -133 23 -133 -21 0 -63 91 -111 238
-28 84 -50 155 -50 158 0 2 16 -4 35 -13 33 -16 36 -16 53 0 13 14 18 41 22
129 l5 112 27 -50 c28 -51 63 -94 77 -94 25 0 34 33 28 110 -3 44 -2 80 1 80
4 -1 16 -15 27 -32 22 -35 50 -56 61 -45 4 3 9 44 13 89 l6 83 42 -71 c75
-126 104 -120 37 7 -43 81 -78 122 -102 117 -14 -3 -18 -17 -22 -78 l-5 -74
-34 42 c-46 59 -59 46 -63 -66 l-3 -87 -30 54 c-16 30 -42 64 -58 75 -43 32
-51 13 -55 -124 -2 -66 -7 -120 -12 -120 -19 0 -53 96 -61 173 -8 82 2 232 20
294 36 122 155 258 366 419 238 180 282 195 469 159z m-1908 -1155 c124 -13
211 -46 572 -215 305 -142 485 -222 552 -244 31 -10 45 -29 135 -183 55 -95
137 -228 183 -296 91 -137 93 -134 -39 -77 -191 83 -615 209 -824 245 -260 45
-727 50 -887 9 -42 -10 -89 -19 -104 -19 -58 0 -140 85 -216 225 l-43 80 0
105 c1 88 4 114 24 157 42 94 153 177 279 207 67 17 240 20 368 6z m364 -800
c205 -23 534 -100 752 -176 105 -37 346 -138 428 -179 55 -28 169 -121 193
-159 l17 -25 -57 20 c-31 10 -66 19 -77 19 -65 0 -117 -77 -184 -270 -132
-385 -224 -904 -297 -1690 -33 -356 -52 -463 -136 -798 -158 -624 -259 -984
-283 -1010 -10 -10 -40 7 -152 89 -154 112 -580 397 -716 478 -121 72 -279
146 -371 172 -73 22 -83 22 -205 11 -191 -17 -350 -62 -376 -105 -9 -16 -3
-26 44 -69 174 -158 729 -549 1165 -821 243 -151 387 -223 483 -241 40 -8 76
-17 79 -20 4 -3 -5 -79 -18 -168 -23 -153 -24 -189 -24 -608 0 -424 1 -450 23
-560 24 -119 71 -309 97 -393 11 -37 11 -49 2 -52 -37 -11 -296 -14 -522 -5
-381 15 -580 41 -675 90 -101 52 -419 477 -539 722 -128 263 -218 566 -266
898 -35 239 -28 1053 12 1474 l17 184 56 -39 c36 -26 85 -47 145 -64 304 -84
1020 -166 1455 -165 l145 1 55 33 c65 38 94 78 110 149 114 523 339 2571 306
2789 -33 220 -475 366 -1196 393 -85 3 -184 8 -220 11 l-65 6 28 24 c28 24 99
48 185 65 59 10 455 3 582 -11z m-225 -171 c321 -27 665 -126 795 -229 65 -51
74 -91 67 -293 -4 -94 -9 -184 -13 -199 l-6 -27 -79 71 c-116 105 -204 169
-301 216 -99 49 -263 105 -363 125 l-70 14 -1 77 c-1 43 -7 88 -14 101 -45 84
-328 110 -554 50 -54 -14 -100 -24 -103 -22 -7 7 18 61 43 94 13 17 34 34 46
37 33 7 412 -3 553 -15z m-52 -143 c16 -8 18 -20 15 -102 -2 -59 1 -97 8 -104
6 -6 44 -18 84 -26 133 -28 383 -142 497 -228 69 -52 251 -239 263 -272 9 -23
9 -21 -25 -349 -79 -749 -170 -1428 -236 -1766 -28 -139 -49 -176 -118 -211
-49 -25 -65 -28 -158 -28 -163 0 -871 76 -1176 126 -266 43 -378 79 -412 130
-56 85 39 761 200 1419 143 588 358 1230 434 1299 20 18 150 83 216 108 43 16
73 18 220 15 94 -2 178 -7 188 -11z m1607 -271 c88 -44 103 -79 124 -285 35
-349 40 -521 40 -1465 1 -517 -2 -952 -7 -967 -10 -36 -64 -64 -141 -73 l-59
-8 6 79 c4 44 9 104 13 134 6 55 6 56 -31 84 l-36 28 3 95 3 96 -35 18 c-60
31 -151 50 -276 56 -104 5 -121 8 -118 22 2 9 15 165 29 346 29 379 57 647 85
822 21 128 111 548 156 725 29 116 92 259 131 301 30 30 38 29 113 -8z m226
-107 c32 -33 32 -34 54 -243 12 -115 39 -350 60 -521 60 -476 113 -1031 160
-1653 11 -150 23 -284 26 -296 6 -26 24 -35 159 -81 157 -54 387 -173 480
-247 108 -87 321 -307 375 -386 89 -132 178 -356 235 -595 14 -55 25 -107 25
-113 0 -27 -41 -52 -134 -83 -105 -35 -136 -61 -136 -114 0 -56 8 -60 107 -51
48 4 113 8 143 9 l55 1 3 -37 c3 -34 0 -38 -25 -44 -236 -54 -359 -93 -380
-121 -16 -21 -16 -81 0 -113 22 -43 57 -45 229 -11 197 39 208 39 208 5 0 -63
-14 -69 -232 -108 -73 -14 -145 -29 -159 -34 -27 -11 -79 -66 -79 -84 0 -20
32 -77 47 -82 8 -4 103 3 211 14 107 11 197 18 200 15 12 -12 -15 -61 -44 -80
-17 -12 -96 -40 -175 -64 -169 -50 -209 -66 -209 -82 0 -17 56 -8 281 47 105
25 210 46 233 47 l41 2 3 -91 c4 -124 -3 -139 -84 -175 -119 -54 -457 -129
-583 -129 -56 0 -71 18 -121 146 -130 336 -161 403 -218 466 -43 47 -96 74
-167 83 -85 12 -131 -7 -205 -83 -103 -105 -147 -207 -270 -627 -50 -169 -105
-291 -148 -327 -44 -37 -152 -86 -241 -110 -64 -17 -108 -20 -286 -21 -203 -1
-213 0 -293 27 -209 69 -238 95 -290 256 -44 135 -76 332 -92 563 -24 362 44
1077 100 1042 4 -3 13 -38 20 -78 6 -39 21 -91 32 -115 l20 -43 -31 -227 c-17
-125 -34 -264 -38 -309 l-6 -82 29 -12 c19 -7 97 -10 232 -7 184 3 205 5 217
22 8 10 32 93 53 185 22 91 61 257 88 368 26 112 51 208 55 214 5 9 16 8 42
-4 69 -33 131 -15 194 57 75 85 99 221 56 317 -26 59 -84 123 -140 156 -30 17
-42 30 -39 42 2 9 7 39 11 66 11 86 7 83 78 72 135 -20 253 -57 382 -121 455
-224 702 -578 819 -1176 33 -170 47 -220 59 -220 29 0 -33 385 -89 560 -142
438 -447 773 -862 946 -120 50 -125 53 -98 63 15 6 33 11 39 11 24 0 133 58
156 83 35 38 39 103 9 147 -57 83 -171 136 -278 128 -50 -4 -65 -10 -105 -43
-35 -28 -46 -33 -41 -19 3 10 12 78 21 149 24 210 16 190 90 215 35 12 79 31
97 43 58 40 60 55 65 714 8 910 -22 1716 -72 1972 -8 40 -15 75 -15 78 0 8 55
-35 86 -69z m-3720 -1432 c200 -41 213 -45 220 -73 4 -13 3 -52 0 -86 -10 -93
-74 -457 -102 -582 -50 -224 -183 -686 -271 -943 l-28 -83 -74 91 c-40 50
-118 138 -173 195 l-100 105 82 252 c113 350 180 587 234 833 55 247 74 315
85 315 4 0 62 -11 127 -24z m304 -280 c0 -30 -146 -671 -226 -988 -89 -356
-221 -772 -264 -828 l-18 -24 -68 19 c-81 21 -312 109 -339 128 -17 13 -17 20
-6 93 17 111 18 114 49 114 15 0 101 -20 192 -44 91 -24 173 -46 184 -48 21
-3 41 43 150 367 127 373 227 731 286 1025 36 180 38 190 51 190 5 0 9 -2 9
-4z m-1894 -391 c161 -82 608 -397 859 -606 121 -101 463 -442 488 -487 18
-31 18 -32 -1 -32 -26 0 -156 43 -259 86 -192 79 -375 181 -603 335 -173 117
-922 679 -928 696 -6 22 153 53 264 50 96 -2 105 -4 180 -42z m4734 -65 c47
-6 111 -16 143 -22 52 -10 57 -13 57 -37 0 -74 -124 -712 -215 -1106 -96 -415
-154 -605 -184 -605 -20 0 -190 141 -307 253 l-52 49 43 167 c89 340 302 1113
336 1219 20 60 47 92 79 92 9 0 54 -5 100 -10z m235 -443 c-35 -246 -202
-1028 -280 -1313 -50 -179 -79 -240 -126 -265 -43 -21 -144 -39 -231 -39 -66
0 -69 5 -72 102 l-1 52 110 22 c61 12 134 31 164 41 l53 19 45 140 c97 308
243 888 303 1204 17 91 34 176 38 190 15 57 13 -44 -3 -153z m-3189 -99 c-180
-783 -433 -1702 -532 -1925 -28 -64 -51 -73 -136 -49 -83 23 -192 66 -219 87
l-23 17 67 269 c37 147 92 376 122 508 30 131 59 243 64 248 6 6 57 -1 129
-18 166 -37 169 -37 214 55 42 85 177 485 233 690 71 264 89 310 107 292 8 -8
0 -59 -26 -174z m4168 102 c30 -37 49 -94 44 -135 -3 -28 -5 -30 -44 -27 -53
3 -235 49 -248 62 -7 7 -4 16 9 29 26 25 174 101 196 101 9 0 29 -14 43 -30z
m-939 -296 c-35 -288 -108 -656 -276 -1394 -54 -239 -104 -457 -110 -485 -7
-27 -20 -66 -30 -86 l-18 -37 -108 5 c-59 3 -130 8 -158 12 l-50 6 -3 71 c-3
71 28 367 48 461 l11 52 47 6 c147 19 255 54 276 88 30 47 143 425 226 757 40
158 150 654 150 674 0 5 2 7 5 4 3 -3 -1 -63 -10 -134z m-2143 0 c106 -38 322
-151 490 -256 284 -178 839 -577 1021 -733 73 -62 78 -69 63 -84 -14 -14 -48
-16 -272 -14 l-256 1 -81 40 c-107 51 -533 325 -832 535 -221 156 -595 441
-592 451 7 21 260 84 344 85 23 1 75 -11 115 -25z m-832 -227 c0 -82 -4 -127
-12 -135 -15 -15 -63 -16 -89 -2 -49 27 -68 153 -29 202 22 29 75 57 108 58
22 0 22 -2 22 -123z m3221 31 c49 -27 84 -93 74 -139 -10 -44 -84 -119 -119
-119 -133 0 -175 204 -55 263 44 22 54 21 100 -5z m154 -88 c17 -34 13 -63
-15 -100 l-20 -25 0 46 c0 46 9 109 16 109 2 0 10 -13 19 -30z m-339 -162 c13
-17 23 -32 21 -35 -3 -2 -20 0 -38 5 -29 7 -34 13 -37 41 -2 18 0 40 3 49 6
14 8 13 16 -7 5 -13 21 -37 35 -53z m-3052 -80 c3 -46 11 -164 16 -263 30
-508 66 -735 171 -1048 106 -317 243 -576 421 -795 90 -111 303 -322 324 -322
11 0 14 -3 9 -9 -32 -31 -487 -42 -676 -16 -260 34 -377 82 -500 205 -218 217
-324 555 -336 1075 -6 217 4 363 27 405 10 19 13 18 68 -20 103 -72 184 -77
264 -16 127 97 152 333 45 444 -43 45 -82 53 -164 36 -36 -7 -69 -12 -71 -9
-7 7 96 141 164 215 58 63 213 200 226 200 3 0 9 -37 12 -82z m2998 -285 c33
-36 48 -65 64 -128 27 -99 9 -169 -60 -238 -42 -43 -77 -54 -113 -38 l-26 12
36 37 c47 49 68 100 74 186 4 57 1 81 -16 124 -12 29 -21 57 -21 62 0 20 37 9
62 -17z m-66 -160 c-3 -34 -12 -79 -21 -100 -16 -37 -52 -83 -65 -83 -4 0 6
53 21 118 16 64 31 128 35 142 6 25 6 25 21 5 11 -15 13 -36 9 -82z m-3164 55
c39 -31 58 -81 58 -155 0 -97 -43 -183 -113 -227 -26 -16 -50 -27 -52 -24 -3
3 11 25 30 48 62 74 79 117 80 195 0 58 -5 78 -27 119 -16 27 -28 50 -28 52 0
9 38 3 52 -8z m-76 -44 c28 -35 36 -86 24 -158 -11 -68 -29 -100 -73 -126 -34
-21 -87 -27 -87 -10 0 6 14 34 30 64 42 74 48 136 20 205 -15 40 -18 56 -9 62
19 12 73 -9 95 -37z m-131 -106 c0 -88 -18 -138 -50 -138 -18 0 -20 55 -6 110
6 19 15 54 21 78 18 71 35 47 35 -50z m5385 -283 c0 -22 -52 -44 -168 -71 -59
-13 -110 -24 -114 -24 -5 0 -8 11 -8 25 0 30 43 54 140 78 110 28 150 26 150
-8z m44 -251 c24 -9 19 -50 -9 -73 -26 -20 -137 -49 -295 -76 -123 -22 -130
-21 -130 15 0 58 52 83 249 120 103 19 160 24 185 14z m-3 -324 c30 -16 23
-36 -20 -53 -53 -21 -234 -56 -335 -63 l-84 -7 -4 41 -3 41 65 10 c36 6 101
17 145 25 98 17 210 20 236 6z m-1126 -70 c53 -102 79 -473 55 -790 -27 -349
-82 -501 -240 -662 -140 -142 -218 -167 -511 -168 -177 0 -243 14 -358 76 -84
46 -133 86 -182 151 -41 52 -119 197 -119 219 0 9 52 12 193 11 433 -3 616 88
722 361 16 40 32 69 36 65 3 -5 12 -44 19 -88 16 -108 53 -217 96 -281 55 -83
113 -122 100 -67 -6 20 0 36 24 69 17 24 42 69 56 101 47 105 54 166 54 468
l0 281 -39 116 -39 116 47 26 c59 33 67 32 86 -4z m123 -30 c22 -22 59 -76 81
-120 47 -90 194 -450 187 -458 -3 -2 -55 -7 -116 -10 -103 -5 -110 -4 -110 14
0 120 -46 428 -80 535 -11 35 -20 67 -20 72 0 16 20 5 58 -33z m-284 -87 c57
-113 70 -598 21 -787 -9 -33 -32 -90 -52 -128 -33 -63 -37 -67 -53 -53 -9 8
-27 37 -40 65 l-23 50 27 87 c54 179 59 305 20 502 -23 119 -24 132 -10 165
19 46 74 126 86 126 5 0 16 -12 24 -27z m-143 -344 c17 -107 1 -399 -21 -399
-13 0 -20 91 -20 281 0 188 5 236 21 207 5 -9 14 -48 20 -89z m889 -251 c0
-18 -7 -54 -14 -80 -42 -136 -130 -251 -238 -308 -53 -29 -76 -35 -147 -38
l-84 -5 7 44 c27 169 36 244 36 311 l0 76 63 6 c198 19 258 23 315 25 l62 1 0
-32z m-4382 -312 c213 -54 265 -60 502 -60 131 0 242 4 266 10 42 11 42 11 90
-38 50 -51 159 -112 190 -106 30 5 27 25 -6 36 l-31 11 41 37 c23 21 48 50 56
66 13 26 19 28 72 27 31 0 77 -4 102 -7 54 -9 55 -20 3 -101 -142 -221 -389
-351 -670 -351 -233 0 -374 56 -541 215 -79 75 -202 240 -202 272 0 18 17 17
128 -11z m1050 -14 c4 -28 -56 -92 -87 -92 -29 0 -61 35 -61 65 0 31 47 55
105 52 33 -2 41 -6 43 -25z M5539 9074 c-20 -59 -16 -385 5 -487 23 -107 60
-231 102 -346 51 -137 191 -424 282 -574 238 -398 630 -800 986 -1012 187
-112 399 -185 537 -185 108 0 87 20 -51 50 -149 33 -383 141 -561 259 -387
257 -758 699 -1004 1196 -187 380 -251 606 -262 940 -6 188 -13 220 -34 159z
M6144 8653 c-43 -43 -59 -103 -59 -218 1 -97 5 -121 33 -205 46 -134 160 -360
234 -465 74 -104 277 -318 399 -420 155 -130 313 -210 395 -203 40 3 46 19 15
33 -25 12 -26 21 -5 71 34 81 -9 230 -146 509 -138 282 -254 450 -418 607 -91
87 -249 186 -351 219 -85 28 -84 27 -66 52 8 12 15 25 15 29 0 14 -28 8 -46
-9z m100 -129 c147 -59 317 -199 448 -367 207 -269 408 -700 408 -877 0 -90
-22 -87 -183 23 -166 113 -212 165 -260 292 -15 39 -41 94 -57 123 -43 73
-152 186 -236 243 -81 55 -117 104 -169 231 -37 89 -65 227 -65 315 0 53 0 53
28 47 15 -4 54 -17 86 -30z m140 -635 c90 -79 261 -319 227 -319 -12 0 -130
135 -205 235 -101 133 -108 160 -22 84z M4188 2444 c-15 -14 -8 -24 27 -38 29
-13 35 -20 35 -46 0 -85 -152 -258 -278 -317 -49 -23 -61 -24 -185 -21 -123 3
-137 5 -208 36 -41 18 -118 57 -170 86 -52 30 -96 50 -98 44 -2 -6 29 -43 69
-82 41 -39 81 -89 91 -111 10 -24 22 -86 27 -151 6 -61 15 -121 21 -133 29
-53 162 -81 297 -63 226 30 394 188 490 458 49 138 46 133 53 104 10 -35 39
-38 47 -5 15 62 -30 175 -86 217 -27 19 -120 35 -132 22z m-8 -488 c0 -19
-122 -131 -193 -177 -77 -50 -112 -59 -224 -59 -76 0 -93 3 -93 15 0 37 200
148 365 204 99 34 145 39 145 17z M3605 6635 c-45 -24 -69 -50 -99 -105 -112
-206 73 -405 240 -258 56 49 78 101 79 183 0 79 -22 136 -67 168 -36 27 -114
33 -153 12z M4164 6481 c-70 -30 -120 -149 -111 -262 12 -141 97 -226 198
-199 86 24 130 92 137 216 4 72 1 89 -21 137 -14 31 -39 65 -59 81 -38 28
-109 42 -144 27z M2120 8821 c0 -6 12 -17 28 -23 173 -72 244 -135 331 -298
23 -44 46 -80 51 -80 13 0 -17 96 -48 155 -15 28 -63 86 -107 131 -63 64 -91
84 -130 97 -75 24 -125 31 -125 18z M1121 8348 c-68 -19 -226 -204 -330 -386
-203 -354 -373 -815 -455 -1232 -63 -318 -70 -404 -71 -830 0 -419 6 -494 56
-694 48 -191 123 -256 396 -346 65 -21 154 -46 197 -55 104 -21 302 -21 373 0
102 30 194 142 316 381 230 455 405 991 541 1659 61 304 74 397 88 648 12 225
4 391 -24 482 -29 93 -196 212 -398 283 -230 80 -570 125 -689 90z m379 -85
c167 -27 471 -122 526 -165 l24 -20 -39 -26 c-90 -60 -190 -204 -292 -417 -61
-129 -182 -423 -239 -582 -22 -61 -23 -62 -114 -117 -51 -31 -97 -56 -103 -56
-15 0 -84 111 -76 123 6 10 123 87 132 87 3 0 19 -20 34 -45 16 -25 35 -45 43
-45 20 0 18 14 -11 70 -14 27 -25 51 -25 53 0 2 38 27 85 56 47 28 85 56 85
62 0 13 -27 5 -119 -37 -41 -19 -77 -34 -80 -34 -11 0 -71 117 -71 138 0 12
20 35 55 61 30 22 56 41 58 41 2 0 18 -22 35 -50 30 -49 59 -68 48 -32 -35
118 -34 124 40 167 42 25 47 26 69 11 58 -38 56 -18 -15 129 -73 152 -74 180
-3 226 l28 19 32 -38 33 -37 -7 58 c-5 49 -3 60 13 72 16 13 17 16 4 25 -8 5
-23 10 -32 10 -22 0 -27 8 -68 119 -19 52 -41 96 -47 99 -20 6 -16 -14 24
-141 36 -115 36 -118 17 -132 -46 -37 -65 -47 -78 -42 -11 5 -56 143 -56 173
0 5 16 19 35 32 46 30 44 42 -8 42 -43 0 -43 1 -53 43 -14 64 -29 46 -26 -31
l3 -67 -58 -37 c-87 -55 -91 -56 -108 -14 -29 70 -22 91 50 143 35 25 62 50
59 54 -2 4 -33 -6 -69 -22 -64 -30 -85 -31 -85 -3 0 8 -7 14 -15 14 -11 0 -15
-11 -15 -40 0 -37 -4 -43 -81 -105 -45 -36 -85 -65 -90 -65 -14 0 -11 38 6 71
21 41 128 162 166 190 17 12 45 25 63 30 41 10 198 1 316 -18z m-339 -260 l17
-62 -69 -66 c-38 -36 -76 -65 -83 -65 -16 0 -46 69 -46 106 0 14 5 34 10 45
16 28 122 110 140 107 9 -2 21 -28 31 -65z m236 -64 c32 -109 31 -113 -32
-155 -30 -20 -61 -34 -69 -31 -23 9 -67 158 -53 176 24 29 110 92 121 88 6 -2
21 -37 33 -78z m736 13 c39 -97 48 -372 22 -612 -63 -568 -273 -1360 -497
-1880 -111 -256 -261 -502 -347 -567 -41 -32 -45 -33 -62 -17 -10 9 -26 37
-36 63 -16 40 -18 80 -18 311 1 272 6 336 51 600 54 318 188 837 304 1175 148
432 310 766 442 910 79 86 112 90 141 17z m-1223 5 c0 -7 -21 -43 -46 -80 -25
-38 -43 -72 -39 -75 4 -4 29 17 56 46 l48 53 15 -28 c7 -16 20 -47 27 -71 l12
-43 -53 -54 c-30 -30 -58 -55 -62 -55 -5 0 -16 16 -25 35 -16 33 -42 44 -35
14 2 -7 6 -34 9 -59 5 -42 2 -49 -35 -95 -22 -28 -68 -84 -101 -125 -57 -70
-73 -100 -53 -100 5 0 57 54 116 121 60 66 109 119 111 117 7 -8 65 -154 65
-163 0 -6 -24 -35 -54 -64 l-54 -54 -21 42 c-36 70 -55 48 -25 -29 l16 -40
-33 -42 c-18 -24 -64 -81 -102 -128 -98 -119 -66 -117 48 4 51 53 95 96 98 96
4 0 25 -36 47 -81 l41 -80 -59 -67 c-122 -138 -194 -243 -179 -258 5 -5 30 23
179 196 35 41 71 75 78 75 8 0 27 -21 43 -47 l30 -47 -50 -58 c-140 -164 -194
-243 -163 -243 5 0 57 55 116 123 59 67 112 122 117 122 6 0 25 -27 43 -60
l33 -60 -94 -113 c-86 -103 -135 -170 -135 -185 0 -19 40 18 141 130 l113 125
66 -71 c36 -39 68 -71 73 -71 11 0 -15 47 -66 116 l-45 62 36 34 c21 18 49 44
65 57 l27 25 36 -42 c20 -23 40 -40 45 -37 5 4 -3 29 -17 57 -14 27 -23 53
-19 56 23 23 131 89 133 81 2 -5 -24 -107 -57 -226 -33 -120 -73 -272 -90
-338 -58 -234 -141 -701 -162 -909 l-12 -120 -79 83 -78 82 45 54 c25 29 42
56 37 59 -10 6 -84 -43 -97 -63 -3 -6 -10 -11 -15 -11 -13 0 -70 82 -70 99 0
9 18 36 39 60 l38 44 35 -26 c59 -45 75 -34 33 23 -14 19 -25 37 -25 41 0 4
19 29 41 55 23 27 36 50 30 52 -6 2 -35 -15 -63 -38 l-53 -42 -52 55 -53 55
90 88 c50 48 90 94 90 101 0 21 -24 4 -114 -77 -44 -39 -84 -69 -90 -67 -6 2
-24 24 -39 48 l-28 45 103 102 c57 56 98 102 91 102 -6 0 -60 -36 -118 -80
-59 -44 -111 -77 -116 -75 -4 3 -31 44 -59 90 -48 79 -66 102 -75 93 -6 -6 37
-100 76 -165 l37 -61 -38 -37 c-43 -42 -33 -51 -120 103 -35 61 -67 112 -72
112 -14 0 -2 -32 58 -159 30 -63 54 -124 54 -135 0 -12 -20 -44 -44 -71 l-43
-49 -42 77 c-24 42 -47 80 -53 83 -24 15 -17 -13 25 -101 l46 -94 -35 -58
c-57 -95 -43 -126 20 -42 43 57 49 56 93 -18 l25 -43 -27 -46 c-27 -46 -32
-48 -77 -29 -23 9 -24 -13 -2 -52 16 -28 16 -31 -15 -96 -18 -37 -36 -67 -40
-67 -9 0 -25 94 -41 235 -14 130 -12 477 5 645 52 534 186 1030 396 1470 108
224 169 325 169 277z m298 -114 c11 -21 27 -62 37 -92 l17 -54 -32 -26 c-18
-14 -51 -39 -74 -54 l-40 -28 -38 73 c-20 40 -37 82 -37 93 0 12 20 36 51 60
44 34 87 63 95 65 2 0 11 -17 21 -37z m263 -126 c9 -29 26 -75 37 -104 l21
-52 -27 -19 c-15 -11 -41 -27 -58 -35 -29 -15 -33 -15 -47 1 -22 24 -67 128
-67 153 0 11 5 29 11 40 11 22 99 82 108 74 3 -3 12 -29 22 -58z m-428 -74
c25 -53 33 -81 27 -92 -5 -9 -33 -40 -64 -70 l-56 -55 -35 76 c-19 42 -35 84
-35 93 0 16 103 125 119 125 4 0 24 -34 44 -77z m311 -169 c6 -18 -5 -31 -59
-74 -36 -29 -67 -51 -68 -49 -2 2 -22 45 -44 94 -47 103 -49 95 42 168 l50 40
36 -79 c20 -44 40 -89 43 -100z m-199 -64 l45 -89 -61 -51 c-34 -28 -66 -49
-73 -48 -6 2 -28 37 -48 77 -31 61 -36 77 -26 94 18 34 100 117 110 111 4 -3
29 -46 53 -94z m-159 -158 l38 -72 -61 -62 -61 -61 -18 34 c-41 75 -62 134
-54 149 4 8 27 37 50 63 50 56 49 57 106 -51z m261 -43 c18 -30 33 -61 33 -70
0 -16 -44 -50 -107 -82 l-31 -17 -36 66 c-20 35 -36 66 -36 68 0 10 124 96
134 93 6 -2 25 -28 43 -58z m-151 -161 l17 -39 -34 -35 c-19 -20 -46 -44 -61
-55 l-26 -19 -31 50 c-17 28 -31 54 -31 58 0 5 25 37 56 71 l57 62 17 -27 c10
-15 26 -44 36 -66z m67 -120 c14 -18 32 -47 41 -65 l16 -32 -42 -36 c-60 -51
-86 -55 -115 -19 -12 16 -28 42 -35 58 -11 29 -10 31 42 78 30 26 57 48 61 48
5 0 19 -15 32 -32z m-436 -967 c36 -47 36 -50 -16 -109 l-28 -33 -32 49 c-17
27 -31 56 -31 65 0 21 50 79 64 74 6 -2 26 -23 43 -46z m-113 -110 c20 -27 36
-55 36 -63 0 -15 -78 -113 -91 -113 -17 0 -59 70 -59 99 0 26 59 126 74 126 2
0 20 -22 40 -49z m266 -87 c0 -15 -58 -94 -69 -94 -5 0 -32 26 -60 58 l-51 57
47 45 46 44 44 -49 c23 -27 43 -55 43 -61z m-147 -87 c42 -62 42 -57 -10 -140
-21 -33 -26 -37 -40 -25 -27 22 -93 109 -93 122 0 19 81 107 94 103 6 -2 28
-29 49 -60z m-120 -145 c43 -54 46 -85 17 -151 -16 -35 -23 -41 -34 -32 -27
22 -96 118 -96 132 0 20 52 99 65 99 5 -1 27 -22 48 -48z m222 22 c9 -9 23
-27 32 -40 14 -22 14 -26 -2 -51 -24 -38 -57 -73 -68 -73 -5 0 -24 16 -43 37
l-33 36 21 31 c29 42 60 76 69 76 4 0 15 -7 24 -16z m138 -158 c15 -19 27 -41
27 -49 0 -8 -18 -34 -39 -58 l-39 -44 -41 40 c-23 21 -41 46 -41 56 0 9 16 37
36 63 40 53 52 52 97 -8z m-454 -23 c58 -78 64 -118 27 -168 -14 -19 -17 -18
-70 35 -31 30 -56 60 -56 66 0 19 42 124 50 124 4 0 25 -25 49 -57z m231 2
l34 -35 -30 -42 c-42 -60 -61 -69 -85 -39 -10 13 -19 33 -19 45 1 32 37 106
53 106 7 0 28 -16 47 -35z m319 -80 c13 -17 22 -49 26 -93 3 -37 13 -116 22
-177 8 -60 18 -127 20 -149 l5 -38 -73 7 c-97 10 -174 30 -210 56 -22 16 -29
28 -29 55 0 50 22 53 83 10 69 -49 73 -28 6 40 l-53 53 18 34 c42 77 39 76
105 19 55 -49 81 -62 81 -44 0 4 -25 36 -55 70 -30 35 -55 66 -55 68 0 19 67
114 80 114 5 0 18 -11 29 -25z m-213 -42 c19 -20 34 -45 34 -55 0 -23 -37 -98
-49 -98 -5 0 -31 18 -60 41 -46 36 -50 43 -40 62 20 38 60 87 71 87 6 0 26
-17 44 -37z m-346 -152 c0 -45 5 -49 32 -24 17 15 20 15 43 -7 27 -25 32 -49
14 -67 -16 -16 -73 14 -121 64 -41 42 -78 120 -78 161 0 26 3 24 55 -30 48
-49 55 -61 55 -97z m145 109 c26 -51 13 -110 -25 -110 -26 0 -53 43 -45 72 20
72 45 86 70 38z m124 -123 c35 -38 37 -61 8 -102 -15 -19 -16 -19 -57 10 -59
41 -65 56 -40 105 24 46 33 45 89 -13z m-81 -118 c24 -17 41 -34 38 -37 -3 -3
-26 3 -51 12 -32 13 -45 23 -45 37 0 26 9 24 58 -12z M1912 7334 c-183 -208
-409 -999 -452 -1584 -11 -146 -5 -220 18 -228 7 -2 12 4 12 13 0 8 40 100 89
203 49 103 102 223 119 267 69 181 157 526 208 814 21 114 27 183 28 311 2
134 5 171 19 197 36 67 15 71 -41 7z m-32 -273 c-26 -353 -188 -979 -320
-1241 -17 -34 -33 -60 -35 -58 -6 6 31 253 71 473 69 382 154 679 261 918 14
31 28 56 30 53 2 -2 -1 -67 -7 -145z M7444 5919 c-7 -8 -24 -39 -39 -69 -41
-82 -93 -146 -160 -197 -77 -59 -133 -83 -220 -94 -97 -13 -115 -18 -115 -31
0 -16 214 -4 268 16 63 23 125 71 172 135 57 75 112 192 108 227 -2 22 -5 25
-14 13z M6480 5786 c0 -8 30 -37 68 -65 97 -73 194 -104 332 -105 91 0 114 3
174 27 81 32 142 75 128 89 -6 6 -25 2 -52 -12 -61 -31 -184 -60 -255 -60 -78
0 -146 20 -259 77 -120 60 -136 66 -136 49z M406 194 c-10 -47 -15 -88 -12
-91 5 -6 9 7 30 110 7 37 10 67 6 67 -4 0 -15 -39 -24 -86z M720 270 c0 -5 5
-10 10 -10 6 0 10 5 10 10 0 6 -4 10 -10 10 -5 0 -10 -4 -10 -10z M1266 194
c-10 -47 -15 -88 -12 -91 5 -6 9 7 30 110 7 37 10 67 6 67 -4 0 -15 -39 -24
-86z M1346 269 c-3 -8 -10 -41 -16 -74 -6 -33 -14 -68 -16 -77 -3 -10 -1 -18
3 -18 10 0 46 171 38 178 -2 3 -7 -1 -9 -9z M109 241 c-38 -38 -41 -101 -7
-125 29 -20 79 -20 104 0 18 14 18 15 1 10 -53 -17 -69 -17 -92 -2 -69 45 21
166 94 126 12 -6 21 -7 21 -1 0 12 -25 21 -62 21 -19 0 -39 -10 -59 -29z
M1110 189 c-28 -45 -49 -83 -47 -85 2 -3 12 7 21 21 14 21 24 25 66 25 43 0
50 -3 50 -19 0 -11 5 -23 10 -26 6 -3 10 -3 10 1 0 20 -44 164 -51 164 -4 0
-30 -37 -59 -81z m75 4 l7 -33 -42 0 c-42 0 -42 0 -28 23 8 12 21 32 29 44 15
25 22 18 34 -34z M260 210 c-22 -22 -27 -79 -8 -98 19 -19 66 -14 88 8 22 22
27 79 8 98 -19 19 -66 14 -88 -8z m71 0 c25 -14 25 -54 -1 -80 -23 -23 -33
-24 -61 -10 -25 14 -25 54 1 80 23 23 33 24 61 10z M470 210 c-22 -22 -27 -79
-8 -98 19 -19 66 -14 88 8 22 22 27 79 8 98 -19 19 -66 14 -88 -8z m71 0 c25
-14 25 -54 -1 -80 -23 -23 -33 -24 -61 -10 -25 14 -25 54 1 80 23 23 33 24 61
10z M616 204 c-3 -16 -8 -47 -11 -69 -8 -51 10 -26 19 27 5 27 15 42 34 53 18
10 22 14 10 15 -9 0 -20 -5 -24 -11 -5 -8 -9 -8 -14 1 -5 8 -10 3 -14 -16z
M717 223 c-2 -4 -7 -26 -11 -48 -4 -22 -9 -48 -12 -57 -3 -10 -1 -18 4 -18 4
0 14 28 20 62 11 58 10 81 -1 61z M775 220 c-1 -3 -5 -23 -9 -45 -4 -22 -9
-48 -12 -57 -3 -10 -1 -18 4 -18 5 0 13 20 17 45 7 53 44 87 74 68 17 -11 19
-28 8 -80 -4 -18 -3 -33 2 -33 16 0 24 99 11 115 -12 14 -87 18 -95 5z M940
210 c-22 -22 -27 -79 -8 -98 15 -15 61 -15 76 0 9 9 12 8 12 -5 0 -9 -12 -24
-26 -34 -21 -13 -32 -15 -55 -6 -16 6 -29 8 -29 3 0 -24 81 -27 102 -2 18 19
50 162 37 162 -5 0 -9 -5 -9 -10 0 -7 -6 -7 -19 0 -30 16 -59 12 -81 -10z m71
0 c29 -16 25 -65 -6 -86 -56 -37 -103 28 -55 76 23 23 33 24 61 10z M1441 211
c-23 -23 -28 -80 -9 -99 19 -19 88 -13 88 9 0 5 -11 4 -24 -2 -54 -25 -89 38
-46 81 23 23 33 24 62 9 16 -9 19 -8 16 3 -8 22 -64 22 -87 -1z M1570 210
c-22 -22 -27 -79 -8 -98 19 -19 66 -14 88 8 22 22 27 79 8 98 -19 19 -66 14
-88 -8z m71 0 c25 -14 25 -54 -1 -80 -23 -23 -33 -24 -61 -10 -25 14 -25 54 1
80 23 23 33 24 61 10z M1716 201 c-3 -14 -8 -44 -11 -66 -8 -51 10 -26 19 27
8 41 35 63 66 53 22 -7 24 -21 11 -77 -5 -22 -5 -38 0 -38 5 0 9 6 9 13 0 68
51 125 85 97 15 -13 15 -35 -1 -92 -3 -10 -1 -18 4 -18 6 0 13 23 17 50 9 63
-5 84 -49 76 -17 -4 -35 -6 -41 -6 -101 8 -104 7 -109 -19z M1360 110 c0 -5 5
-10 10 -10 6 0 10 5 10 10 0 6 -4 10 -10 10 -5 0 -10 -4 -10 -10z"/>
</g>
</svg>
