<svg version="1.0" xmlns="http://www.w3.org/2000/svg"
  viewBox="0 0 1280.593573 740.578360"
 preserveAspectRatio="xMidYMid meet">
<metadata>
For more coloring pages, please visit ColoringAll.com
</metadata>
<g transform="translate(-0.266461,740.728973) scale(0.100000,-0.100000)"
fill="#000000" stroke="none">
<path d="M7085 7397 c-171 -57 -289 -184 -395 -423 -48 -109 -65 -175 -75
-280 -4 -44 -10 -86 -15 -93 -9 -16 -227 -50 -317 -51 l-62 0 -5 33 c-3 17 -8
54 -11 82 -13 100 -69 205 -127 236 -59 31 -360 60 -421 40 -100 -33 -189
-149 -190 -249 -1 -65 15 -103 81 -190 31 -42 51 -77 46 -81 -5 -5 -101 -37
-214 -71 -293 -88 -447 -147 -675 -260 -265 -131 -483 -278 -695 -469 -42 -38
-44 -42 -27 -55 10 -8 55 -24 100 -35 174 -46 192 -53 190 -81 -1 -21 -213
-545 -243 -600 -6 -11 -19 -24 -28 -29 -10 -5 -131 -19 -268 -31 -284 -24
-413 -40 -604 -76 -513 -96 -996 -275 -1246 -462 -49 -37 -141 -119 -205 -182
-63 -64 -124 -120 -135 -124 -10 -4 -95 -23 -189 -42 -395 -81 -674 -179 -876
-309 -84 -54 -258 -204 -343 -296 -93 -101 -111 -149 -111 -309 0 -142 14
-188 86 -300 l40 -62 10 -147 c10 -158 35 -385 50 -464 5 -28 9 -53 9 -57 0
-5 -20 -20 -43 -34 -24 -14 -56 -41 -71 -61 -69 -89 -112 -243 -102 -358 8
-90 58 -242 97 -295 39 -53 125 -95 299 -148 151 -45 287 -95 352 -131 27 -15
73 -54 102 -89 152 -178 343 -301 552 -354 134 -34 237 -43 459 -37 223 5 293
15 535 72 l145 34 490 5 c493 6 671 15 1045 56 515 57 947 132 1488 259 95 23
176 41 181 41 5 0 24 -35 41 -77 138 -332 317 -546 570 -681 210 -112 526
-170 869 -159 464 15 798 144 1040 403 131 141 210 277 286 494 26 74 50 138
54 143 9 9 73 20 901 156 1406 231 1368 226 1390 206 10 -9 57 -81 104 -159
47 -77 98 -156 114 -175 l29 -35 309 12 c406 15 468 30 562 137 75 86 169 295
197 440 8 39 19 158 26 265 15 261 18 274 50 278 33 4 102 -47 149 -110 41
-56 33 -60 151 81 167 199 242 429 211 646 -12 83 -35 275 -57 473 -35 320
-128 560 -313 812 -114 155 -399 422 -529 496 -26 15 -86 51 -133 80 -83 51
-262 143 -388 199 -70 31 -67 28 -167 220 -144 278 -275 463 -470 664 -225
231 -457 402 -730 536 -324 159 -593 229 -1170 303 l-210 27 2 47 c2 59 32
114 86 153 123 92 142 203 51 304 -89 99 -238 159 -415 168 -128 7 -160 -2
-227 -62 -70 -63 -96 -127 -87 -214 11 -112 22 -140 79 -197 67 -66 104 -77
248 -72 120 3 119 4 79 -67 l-17 -30 -174 -3 c-171 -2 -475 10 -485 20 -3 3
-17 51 -30 108 -64 261 -143 419 -273 543 -85 80 -154 110 -262 114 -52 2
-101 -2 -125 -10z m261 -80 c74 -37 173 -149 228 -256 25 -49 46 -94 46 -100
0 -16 -44 -20 -415 -36 -192 -8 -380 -18 -418 -21 l-68 -7 11 28 c6 16 31 68
56 117 63 121 160 225 257 273 70 36 75 37 162 33 72 -4 100 -9 141 -31z
m1042 -111 c35 -18 85 -72 106 -113 9 -19 16 -57 16 -91 0 -83 -38 -155 -105
-200 -45 -30 -56 -34 -105 -30 -70 5 -131 44 -168 107 -51 87 -27 251 44 298
64 41 162 55 212 29z m287 -91 c60 -41 95 -97 95 -153 0 -51 -24 -81 -97 -119
-62 -34 -168 -59 -159 -39 66 149 73 219 31 321 -14 33 -25 61 -25 62 0 10
114 -43 155 -72z m-2830 -249 c58 -31 98 -102 103 -180 3 -54 0 -66 -27 -109
-43 -66 -110 -107 -175 -107 -86 1 -171 54 -202 127 -8 18 -14 59 -14 91 0
159 171 256 315 178z m1786 4 c28 -15 48 -62 65 -147 8 -42 13 -77 12 -79 -2
-1 -143 -7 -313 -13 -319 -12 -594 -27 -677 -37 l-48 -6 0 79 c0 77 13 148 29
157 10 7 286 34 451 45 186 12 458 13 481 1z m-1571 -28 c45 -32 83 -124 88
-213 3 -52 1 -84 -7 -93 -7 -8 -42 -19 -79 -25 -37 -6 -79 -14 -94 -17 l-27
-5 34 66 c43 81 45 127 10 231 -14 41 -25 77 -25 81 0 11 75 -7 100 -25z
m2517 -145 c-9 -67 -24 -97 -47 -97 -23 0 -25 17 -10 69 10 36 36 71 53 71 6
0 7 -18 4 -43z m-827 -127 c714 -19 1232 -62 1575 -131 386 -77 721 -224 1055
-464 122 -88 209 -162 175 -149 -113 42 -196 66 -250 71 -58 5 -65 4 -65 -12
0 -23 97 -449 161 -709 27 -109 48 -201 45 -203 -6 -7 -41 48 -58 92 -9 22
-39 141 -68 265 -113 496 -179 730 -214 765 -44 43 -233 65 -570 65 -323 0
-470 -23 -534 -83 -93 -87 -121 -276 -129 -877 l-5 -425 27 -60 c81 -179 135
-378 135 -497 0 -36 -1 -38 -32 -38 -18 0 -105 12 -193 26 -297 46 -484 63
-839 76 -840 29 -1616 -42 -2277 -208 -670 -168 -1111 -410 -1269 -698 -40
-72 -43 -75 -83 -81 -46 -6 -729 -56 -1092 -80 -714 -47 -1297 -70 -1570 -62
-225 7 -318 19 -355 46 -23 17 -25 25 -25 98 0 73 3 86 42 164 90 181 320 507
444 630 122 121 386 277 621 369 297 116 791 222 1197 255 311 26 435 42 693
90 371 68 715 115 1101 150 93 9 412 20 747 27 872 17 1557 -3 2154 -63 l209
-21 19 23 c32 43 58 105 74 180 33 156 10 657 -39 854 -10 42 -18 53 -52 72
-54 29 -245 83 -469 132 -385 84 -635 111 -1025 111 -434 -1 -666 -21 -1016
-92 -540 -108 -1024 -290 -1497 -562 l-167 -97 -122 36 c-68 20 -125 38 -128
41 -14 14 233 205 384 296 119 73 344 189 490 252 527 230 1358 382 2340 429
33 2 65 4 70 5 6 1 179 -3 385 -8z m-173 -389 c392 -54 872 -169 916 -219 25
-29 50 -267 55 -527 6 -323 -14 -446 -75 -461 -23 -6 -92 -2 -503 31 -560 44
-1157 60 -1753 45 -795 -19 -1203 -56 -1807 -166 -135 -24 -260 -44 -278 -44
-40 0 -41 -7 28 165 90 226 209 469 238 486 15 9 72 42 127 74 126 73 399 210
530 265 316 134 825 286 1054 316 l54 7 -7 -27 c-15 -59 -169 -481 -177 -487
-5 -3 -53 -13 -107 -23 -406 -74 -886 -203 -1277 -341 -179 -64 -229 -84 -222
-91 3 -3 85 19 184 50 247 77 466 138 705 196 194 48 262 60 208 39 -134 -54
-176 -220 -83 -328 40 -48 72 -66 139 -81 65 -15 146 3 187 41 38 33 26 37
-34 9 -142 -64 -306 44 -284 187 5 33 17 55 48 88 65 67 142 81 244 45 65 -23
76 -20 36 7 -43 30 -62 36 -148 42 l-80 6 190 37 c292 57 265 55 265 22 0 -16
-20 -112 -45 -214 -49 -201 -49 -200 -37 -200 9 0 24 40 108 279 29 85 59 160
66 167 14 13 224 46 438 68 186 20 1014 30 1340 17 144 -6 316 -19 394 -31
140 -20 182 -20 110 -1 -243 65 -643 101 -1122 101 -338 0 -547 -11 -812 -41
-96 -11 -208 -23 -248 -26 l-72 -6 6 34 c26 145 109 443 129 462 15 16 134 33
320 47 61 4 288 7 505 5 337 -2 417 -6 547 -24z m2402 -100 c30 -6 64 -20 77
-32 44 -42 100 -235 199 -689 82 -379 66 -341 206 -477 183 -178 266 -291 359
-488 92 -195 187 -501 205 -662 7 -56 6 -62 -16 -77 -13 -9 -39 -16 -59 -16
-19 -1 -138 -18 -265 -40 l-230 -39 -45 32 c-332 232 -623 361 -1202 532 -48
14 -93 32 -101 39 -8 8 -19 58 -26 117 -16 134 -49 258 -107 405 -56 143 -66
194 -38 194 60 0 1250 51 1302 56 43 4 62 10 62 19 0 39 -190 911 -213 980
-19 55 -55 70 -212 89 -196 24 -494 46 -608 46 -138 0 -172 -11 -229 -73 -54
-57 -69 -42 -18 17 32 35 80 56 175 75 62 13 708 5 784 -8z m-349 -92 c319
-27 378 -36 394 -63 17 -27 41 -127 115 -472 83 -391 93 -445 87 -452 -10 -10
-443 -32 -1140 -58 l-178 -7 6 139 c25 529 46 661 133 826 66 127 80 129 583
87z m783 -170 c138 -46 255 -143 351 -292 96 -146 186 -362 186 -445 0 -37 -3
-41 -39 -56 -54 -21 -144 -35 -282 -43 l-117 -6 -16 57 c-32 108 -186 770
-186 797 0 15 36 10 103 -12z m485 -351 c98 -130 170 -247 263 -431 44 -86 93
-172 109 -191 18 -19 54 -43 88 -56 200 -80 518 -265 683 -398 236 -190 434
-449 544 -710 66 -158 95 -299 120 -586 9 -98 21 -201 27 -230 16 -68 16 -287
0 -356 -18 -78 -91 -221 -162 -315 -33 -44 -64 -81 -69 -83 -5 -2 -24 10 -43
26 -47 42 -106 70 -172 84 -85 18 -191 -6 -331 -77 -182 -91 -257 -151 -657
-525 l-88 -81 -392 -65 c-1589 -262 -2158 -354 -2182 -354 -12 0 -12 11 1 72
81 417 79 826 -7 1136 -73 263 -237 426 -497 493 -441 113 -889 -120 -1231
-638 -40 -62 -78 -113 -82 -113 -5 0 -14 19 -20 43 -18 71 -41 130 -66 169
-36 56 -67 62 -289 55 -274 -8 -621 -55 -1165 -157 -146 -27 -293 -53 -328
-58 -75 -10 -68 -26 -77 183 -8 187 -24 265 -72 357 -69 132 -150 196 -328
259 l-83 29 -319 -1 c-175 0 -367 -4 -428 -9 -289 -24 -448 -31 -930 -40 -495
-9 -526 -11 -637 -34 -499 -106 -779 -313 -893 -662 -20 -60 -55 -262 -55
-315 0 -14 -57 -11 -224 11 -82 10 -230 24 -330 30 -99 7 -206 15 -236 18
l-55 7 -17 85 c-23 116 -48 352 -48 458 l0 87 112 0 c136 0 181 18 256 100
143 157 145 452 2 608 -50 55 -133 101 -202 112 -21 3 -38 10 -38 15 0 23 173
142 299 205 163 81 409 159 680 215 164 33 171 34 171 20 0 -5 -37 -69 -82
-142 -44 -73 -104 -178 -132 -233 -50 -98 -51 -101 -51 -190 0 -98 12 -129 60
-161 48 -32 631 -44 1125 -24 630 26 1877 113 1975 138 25 7 37 21 69 87 120
245 515 483 1062 640 681 195 1641 287 2559 245 472 -22 992 -103 1127 -177
97 -53 156 -146 183 -288 16 -84 40 -408 32 -429 -6 -16 -6 -16 -452 -51 -176
-14 -410 -35 -520 -46 -576 -57 -1354 -164 -1380 -190 -13 -13 -22 -14 389 35
440 53 586 69 886 96 193 17 1028 80 1065 80 10 0 14 -51 19 -217 4 -120 11
-357 17 -528 15 -502 36 -793 61 -838 10 -19 17 -20 174 -13 315 13 576 49
847 117 244 62 424 129 510 193 102 75 165 437 174 1009 5 323 6 327 27 332
17 4 198 9 901 26 l50 1 -40 8 c-22 5 -239 11 -482 16 -243 4 -446 10 -452 13
-13 9 -64 185 -59 208 6 31 121 38 418 25 146 -7 319 -19 385 -28 111 -14 182
-28 538 -101 97 -21 130 -24 139 -15 9 9 1 16 -34 32 -112 49 -560 138 -813
160 -66 6 -247 14 -403 17 -155 3 -285 10 -288 14 -2 5 -23 81 -45 171 -120
488 -235 727 -488 1007 l-63 71 103 0 c194 1 324 28 374 78 25 24 27 32 22 80
-8 77 -61 227 -126 357 -32 63 -57 115 -55 115 1 0 34 -42 72 -92z m-1323
-1515 c320 -111 608 -261 829 -430 l39 -30 61 14 c193 46 505 91 551 79 32 -8
73 -89 82 -164 l6 -50 -74 -6 c-41 -3 -254 -11 -474 -16 -530 -14 -967 -29
-1037 -36 -69 -7 -63 -27 -83 235 -21 262 -40 341 -105 435 l-30 45 52 -16
c29 -8 111 -36 183 -60z m1577 -661 c16 -16 15 -455 -2 -643 -15 -168 -46
-385 -72 -493 -26 -112 -56 -148 -171 -204 -244 -120 -871 -242 -1239 -242
-59 0 -109 4 -112 9 -9 15 -25 228 -36 476 -13 328 -33 1045 -28 1050 6 6 342
24 773 40 226 8 444 17 485 19 175 7 389 1 402 -12z m-10747 -56 c52 -31 91
-89 111 -167 19 -75 12 -140 -24 -212 -70 -136 -235 -155 -321 -36 -41 56 -54
109 -49 199 11 184 152 292 283 216z m3821 -338 c3 -4 -13 -37 -35 -75 -23
-37 -54 -104 -68 -148 -24 -71 -27 -95 -26 -215 0 -111 4 -152 25 -232 l25
-96 -21 -6 c-12 -3 -53 -6 -92 -6 l-71 0 -23 83 c-32 112 -38 284 -16 397 10
45 35 127 57 181 21 55 39 105 39 111 0 29 -56 -46 -95 -127 -90 -185 -97
-357 -23 -548 22 -57 27 -81 19 -87 -16 -9 -339 -43 -350 -36 -5 4 -17 27 -26
54 -23 61 -32 298 -16 401 13 83 90 284 120 315 15 15 38 21 86 24 36 2 65 2
65 -1 0 -2 -20 -42 -44 -88 -107 -201 -122 -409 -45 -615 23 -60 46 -74 34
-21 -13 63 -17 386 -5 453 13 81 74 235 101 260 12 11 45 20 87 25 75 8 288 6
298 -3z m208 -29 c117 -29 114 -27 83 -96 -46 -103 -68 -200 -74 -328 -5 -108
8 -290 22 -303 17 -18 25 36 34 223 15 298 44 445 88 445 32 0 142 -125 179
-205 33 -67 37 -86 44 -202 16 -230 -2 -332 -56 -321 -61 12 -84 147 -66 386
7 86 15 173 18 192 6 31 5 33 -9 20 -25 -26 -56 -126 -68 -222 -16 -129 -7
-211 31 -298 17 -40 29 -77 27 -84 -11 -27 -83 -27 -159 -2 -40 14 -99 32
-130 41 -84 23 -91 40 -91 235 0 173 12 247 69 413 19 56 34 103 34 106 0 2
-9 -4 -21 -15 -26 -23 -67 -103 -105 -204 -26 -70 -28 -86 -28 -225 -1 -126 2
-162 21 -222 21 -72 21 -72 1 -79 -28 -9 -84 4 -99 22 -17 21 -26 230 -18 392
5 98 11 131 39 205 18 49 43 101 57 118 30 36 61 37 177 8z m-824 -4 c0 -2
-21 -37 -47 -76 -25 -40 -58 -104 -72 -143 -23 -64 -25 -86 -25 -226 -1 -146
1 -159 27 -224 43 -108 40 -114 -68 -119 l-50 -2 -29 85 c-49 141 -47 349 5
502 34 102 79 188 102 198 23 9 157 14 157 5z m-230 -19 c0 -2 -17 -42 -38
-88 -107 -232 -121 -362 -57 -540 46 -127 49 -138 39 -147 -12 -12 -541 -73
-590 -69 -35 3 -38 6 -57 58 -15 43 -20 91 -24 225 -6 196 6 289 56 426 41
112 57 129 122 129 l51 0 -20 -32 c-106 -172 -152 -377 -119 -533 18 -85 75
-235 88 -235 6 0 8 8 5 18 -50 175 -55 385 -13 545 28 107 64 192 91 220 10
10 32 17 54 17 65 0 68 -9 26 -91 -73 -146 -84 -194 -84 -370 0 -129 4 -168
20 -223 11 -36 24 -67 29 -70 4 -3 11 109 15 249 6 217 10 265 27 322 28 89
53 136 85 162 30 23 99 30 91 9 -2 -7 -25 -74 -50 -148 -76 -221 -81 -335 -26
-527 29 -103 42 -104 32 -3 -20 210 -1 414 57 594 28 86 33 95 58 99 38 6 132
8 132 3z m-993 -13 c-87 -143 -110 -185 -127 -231 -50 -132 -52 -364 -6 -509
40 -125 64 -126 40 -3 -17 89 -18 277 -3 386 11 80 44 179 98 297 l31 67 151
0 c117 0 150 -3 146 -12 -3 -7 -24 -54 -46 -104 -65 -144 -84 -228 -84 -374
-1 -120 1 -130 38 -237 21 -62 36 -116 32 -119 -4 -4 -55 -7 -114 -8 l-107 -1
-18 75 c-25 105 -33 266 -19 375 12 89 59 231 108 328 25 51 25 69 -2 47 -29
-24 -114 -173 -137 -239 -21 -59 -23 -85 -23 -241 0 -174 0 -175 32 -255 18
-44 33 -85 33 -91 0 -13 -68 -24 -150 -24 l-57 0 -11 38 c-51 171 -36 454 38
701 12 40 20 82 18 94 -5 32 -58 -74 -96 -193 -63 -197 -65 -372 -6 -549 15
-45 25 -84 22 -86 -3 -3 -23 -2 -44 3 -49 10 -60 31 -79 159 -32 209 -3 509
61 635 24 48 39 56 124 71 44 8 161 7 157 0z m-307 -33 c0 -5 -11 -35 -25 -66
-41 -93 -73 -205 -80 -284 -9 -105 10 -280 40 -373 14 -43 25 -82 25 -87 0 -6
-23 -10 -51 -10 -49 0 -50 1 -69 43 -33 74 -43 168 -37 346 4 129 10 183 27
241 27 94 66 167 99 185 30 16 71 19 71 5z m5994 -25 c92 -16 238 -83 305
-139 154 -129 230 -330 251 -666 12 -203 13 -380 1 -380 -5 0 -23 62 -41 138
-52 223 -119 374 -237 540 -141 198 -306 341 -538 467 -58 32 -66 40 -50 46
33 13 225 9 309 -6z m-6154 -30 c-5 -13 -18 -42 -29 -64 -12 -22 -32 -79 -46
-126 -43 -151 -32 -318 34 -509 12 -33 21 -61 21 -63 0 -2 -21 -3 -47 -1 l-48
3 -18 65 c-23 84 -34 327 -18 427 20 127 57 227 96 262 45 39 69 42 55 6z
m5856 -61 c353 -173 602 -460 722 -834 49 -152 74 -298 79 -465 5 -137 3 -160
-22 -269 -85 -378 -256 -659 -498 -820 -160 -107 -354 -182 -555 -217 -131
-22 -402 -26 -587 -9 -510 49 -820 259 -1027 697 -27 58 -52 120 -55 138 -6
37 -20 31 210 100 163 48 159 49 192 -32 98 -238 182 -378 305 -507 236 -249
584 -392 905 -373 167 11 337 65 470 152 84 54 270 244 333 340 100 150 184
346 218 505 17 79 19 443 3 540 -13 83 -59 221 -109 328 -128 273 -364 492
-638 592 -79 29 -200 62 -277 75 -38 6 -39 8 -20 22 31 23 116 65 160 79 53
17 83 11 191 -42z m-5986 37 c0 -5 -14 -44 -31 -86 -70 -175 -76 -343 -20
-550 16 -60 26 -114 21 -118 -4 -5 -17 -6 -29 -2 -50 16 -80 136 -88 350 -9
247 13 336 96 392 36 25 51 29 51 14z m-180 -140 c-55 -176 -38 -408 42 -564
11 -22 17 -44 15 -51 -5 -13 -92 -36 -138 -36 -27 0 -33 6 -53 53 -32 73 -53
165 -66 286 -20 203 -14 232 61 275 l32 19 -6 -24 c-32 -113 -40 -192 -29
-277 12 -102 54 -240 82 -274 l19 -23 1 23 c0 12 -9 64 -21 115 -17 78 -20
119 -17 272 3 197 9 220 63 255 16 11 30 18 32 17 1 -2 -7 -31 -17 -66z m5898
-32 c178 -36 333 -102 448 -190 81 -62 229 -220 279 -298 60 -93 129 -255 162
-378 35 -135 43 -374 18 -524 -45 -269 -187 -552 -370 -734 -209 -210 -473
-301 -770 -265 -330 39 -624 217 -806 486 -65 97 -179 331 -186 382 l-5 39 68
26 c38 15 112 41 164 59 l95 33 8 45 c19 105 73 304 113 422 119 349 265 595
489 826 l101 104 50 -7 c27 -4 91 -16 142 -26z m-6097 -531 c27 -59 49 -109
49 -112 0 -17 -31 -2 -53 24 -75 88 -122 379 -76 461 12 21 15 8 22 -121 l8
-145 50 -107z m5282 230 c29 -62 57 -183 57 -248 0 -80 -17 -152 -70 -301
l-41 -116 -92 -31 c-262 -90 -655 -169 -1267 -256 -384 -55 -532 -82 -810
-147 -118 -28 -321 -75 -450 -105 -452 -106 -852 -179 -1125 -204 -162 -15
-529 -12 -711 5 -538 52 -1487 200 -1791 280 -162 43 -236 92 -282 188 -41 85
-57 202 -42 305 14 93 67 212 106 238 37 24 192 30 415 15 321 -22 457 -44
755 -126 350 -95 491 -114 920 -122 541 -10 726 13 1565 197 1016 222 1753
366 2210 429 188 26 199 27 436 29 l202 2 15 -32z m-5424 -104 c17 -101 34
-147 76 -205 19 -27 35 -53 35 -58 0 -14 -77 -41 -118 -41 -51 0 -62 14 -62
79 l0 54 54 -59 c30 -32 57 -56 61 -52 4 4 -10 51 -33 105 -22 54 -43 119 -47
145 -7 47 1 108 14 108 4 0 13 -34 20 -76z m10911 -151 c0 -297 -25 -442 -106
-613 -57 -119 -87 -153 -129 -144 -138 30 -285 210 -344 424 -28 99 -27 129 7
173 15 20 30 36 34 37 3 0 14 -24 24 -52 41 -127 109 -219 190 -258 37 -19 49
-20 78 -10 60 19 130 112 155 205 6 22 20 112 31 200 25 200 28 215 46 215 12
0 14 -31 14 -177z m-110 73 c0 -116 -35 -301 -71 -374 -50 -103 -93 -115 -168
-47 -50 45 -110 160 -118 224 l-6 50 67 48 c66 48 274 173 288 173 5 0 8 -33
8 -74z m-7594 -28 c4 -5 5 -10 3 -13 -5 -5 -491 -113 -942 -210 -573 -122
-741 -140 -1260 -132 -369 6 -473 15 -691 61 -147 32 -196 45 -196 55 0 10
134 67 192 81 24 6 165 15 313 20 717 27 789 31 1100 65 176 20 410 46 520 60
182 22 233 24 577 22 207 -1 380 -5 384 -9z m7052 -355 c11 -27 25 -66 32 -88
20 -62 78 -174 127 -243 46 -65 124 -130 183 -152 54 -21 57 -28 14 -46 -83
-35 -189 -44 -464 -42 l-265 3 -56 90 c-31 50 -72 122 -92 160 l-37 70 43 8
c23 5 90 19 148 33 l105 25 114 114 c63 63 118 115 121 115 4 0 16 -21 27 -47z
m-4918 -205 c0 -34 -49 -210 -65 -234 -44 -68 -918 -310 -1550 -429 -1376
-260 -2604 -258 -3650 5 -189 48 -473 132 -458 137 5 2 129 -14 274 -36 898
-136 1212 -164 1620 -142 409 21 685 70 1499 266 431 103 575 131 980 190 444
64 569 85 770 126 158 33 481 112 521 128 41 17 59 13 59 -11z m-5526 -647
c335 -96 673 -165 1051 -216 271 -36 270 -35 124 -65 -221 -46 -714 -46 -864
0 -80 25 -222 93 -288 138 -84 58 -225 192 -202 192 4 0 85 -22 179 -49z
M8277 7088 c-99 -34 -111 -84 -36 -159 71 -71 156 -90 198 -45 42 45 40 142
-5 196 -31 36 -70 39 -157 8z M5702 6777 c-44 -14 -92 -59 -92 -88 0 -59 133
-153 207 -147 32 3 41 9 60 43 26 46 29 82 9 129 -24 58 -50 76 -103 75 -27
-1 -63 -6 -81 -12z M7220 5591 c-77 -24 -141 -83 -161 -150 -27 -89 25 -206
106 -242 88 -39 206 -34 265 11 36 28 20 33 -31 10 -90 -40 -189 -16 -253 64
-64 79 -31 207 67 258 55 29 135 29 197 0 51 -24 66 -19 32 9 -48 39 -160 59
-222 40z M7254 5534 c-22 -8 -57 -32 -78 -53 -50 -51 -58 -106 -24 -171 31
-60 73 -83 148 -82 102 1 161 49 167 134 6 71 -18 113 -83 149 -67 37 -82 40
-130 23z M5516 5410 c-56 -17 -106 -89 -106 -152 0 -73 90 -148 176 -148 46 0
108 33 138 73 16 22 21 43 21 94 0 60 -2 67 -32 93 -50 45 -128 60 -197 40z
M9820 4568 c0 -109 1 -114 31 -158 57 -85 69 -118 84 -233 31 -230 98 -349
220 -387 53 -17 112 -47 152 -76 39 -29 43 -30 43 -4 0 11 22 63 50 116 59
116 76 184 61 253 -15 72 -57 176 -95 240 -19 31 -48 85 -65 121 -17 35 -46
80 -64 98 -38 40 -145 122 -158 122 -5 0 -14 -11 -19 -25 -12 -33 -20 -32 -70
10 -23 19 -46 35 -51 35 -5 0 -9 -16 -9 -35 0 -19 -4 -35 -8 -35 -5 0 -27 16
-49 35 -23 19 -44 35 -47 35 -3 0 -6 -51 -6 -112z M5482 3725 c-171 -48 -286
-229 -285 -450 2 -148 52 -269 150 -355 66 -58 140 -83 233 -78 94 4 155 32
228 105 91 91 128 210 120 381 -6 111 -29 181 -83 254 -87 118 -238 177 -363
143z m121 -159 c47 -19 97 -73 126 -136 21 -44 25 -70 25 -135 0 -72 -3 -86
-34 -143 -38 -72 -97 -127 -151 -143 -46 -14 -118 7 -171 51 -80 66 -121 228
-84 336 48 143 176 218 289 170z M7240 2124 c-266 -72 -467 -305 -526 -612
-65 -338 103 -690 403 -845 l91 -47 182 0 182 0 77 40 c199 104 336 277 391
494 28 112 28 321 0 432 -69 267 -266 477 -506 538 -77 20 -221 20 -294 0z
m271 -54 c180 -33 355 -195 450 -416 l34 -79 0 -195 c0 -217 -5 -242 -74 -375
-51 -100 -182 -230 -278 -278 -40 -19 -98 -41 -130 -47 -83 -18 -245 -8 -317
18 -214 78 -371 271 -422 519 -22 105 -15 281 16 378 71 227 241 406 445 471
49 15 203 18 276 4z M7264 1870 c-157 -33 -316 -207 -353 -388 -16 -75 -14
-187 4 -257 94 -368 484 -506 741 -263 109 103 153 204 161 373 8 171 -25 277
-121 382 -65 72 -153 129 -219 142 -81 16 -168 21 -213 11z m250 -84 c161 -79
246 -226 246 -426 0 -158 -44 -265 -151 -365 -75 -70 -124 -88 -244 -89 -91
-1 -105 2 -160 28 -276 136 -333 551 -106 776 88 87 150 111 279 106 64 -3 94
-10 136 -30z M11226 194 c-10 -47 -15 -88 -12 -91 5 -6 9 7 30 110 7 37 10 67
6 67 -4 0 -15 -39 -24 -86z M11540 270 c0 -5 5 -10 10 -10 6 0 10 5 10 10 0 6
-4 10 -10 10 -5 0 -10 -4 -10 -10z M12086 194 c-10 -47 -15 -88 -12 -91 5 -6
9 7 30 110 7 37 10 67 6 67 -4 0 -15 -39 -24 -86z M12166 269 c-3 -8 -10 -41
-16 -74 -6 -33 -14 -68 -16 -77 -3 -10 -1 -18 3 -18 10 0 46 171 38 178 -2 3
-7 -1 -9 -9z M10929 241 c-38 -38 -41 -101 -7 -125 29 -20 79 -20 104 0 18 14
18 15 1 10 -53 -17 -69 -17 -92 -2 -69 45 21 166 94 126 12 -6 21 -7 21 -1 0
12 -25 21 -62 21 -19 0 -39 -10 -59 -29z M11930 189 c-28 -45 -49 -83 -47 -85
2 -3 12 7 21 21 14 21 24 25 66 25 43 0 50 -3 50 -19 0 -11 5 -23 10 -26 6 -3
10 -3 10 1 0 20 -44 164 -51 164 -4 0 -30 -37 -59 -81z m75 4 l7 -33 -42 0
c-42 0 -42 0 -28 23 8 12 21 32 29 44 15 25 22 18 34 -34z M11080 210 c-22
-22 -27 -79 -8 -98 19 -19 66 -14 88 8 22 22 27 79 8 98 -19 19 -66 14 -88 -8z
m71 0 c25 -14 25 -54 -1 -80 -23 -23 -33 -24 -61 -10 -25 14 -25 54 1 80 23
23 33 24 61 10z M11290 210 c-22 -22 -27 -79 -8 -98 19 -19 66 -14 88 8 22 22
27 79 8 98 -19 19 -66 14 -88 -8z m71 0 c25 -14 25 -54 -1 -80 -23 -23 -33
-24 -61 -10 -25 14 -25 54 1 80 23 23 33 24 61 10z M11436 204 c-3 -16 -8 -47
-11 -69 -8 -51 10 -26 19 27 5 27 15 42 34 53 18 10 22 14 10 15 -9 0 -20 -5
-24 -11 -5 -8 -9 -8 -14 1 -5 8 -10 3 -14 -16z M11537 223 c-2 -4 -7 -26 -11
-48 -4 -22 -9 -48 -12 -57 -3 -10 -1 -18 4 -18 4 0 14 28 20 62 11 58 10 81
-1 61z M11595 220 c-1 -3 -5 -23 -9 -45 -4 -22 -9 -48 -12 -57 -3 -10 -1 -18
4 -18 5 0 13 20 17 45 7 53 44 87 74 68 17 -11 19 -28 8 -80 -4 -18 -3 -33 2
-33 16 0 24 99 11 115 -12 14 -87 18 -95 5z M11760 210 c-22 -22 -27 -79 -8
-98 7 -7 24 -12 38 -12 14 0 31 5 38 12 9 9 12 8 12 -5 0 -9 -12 -24 -26 -34
-21 -13 -32 -15 -55 -6 -16 6 -29 8 -29 3 0 -24 81 -27 102 -2 18 19 50 162
37 162 -5 0 -9 -5 -9 -10 0 -7 -6 -7 -19 0 -30 16 -59 12 -81 -10z m71 0 c29
-16 25 -65 -6 -86 -56 -37 -103 28 -55 76 23 23 33 24 61 10z M12261 211 c-23
-23 -28 -80 -9 -99 19 -19 88 -13 88 9 0 5 -11 4 -24 -2 -54 -25 -89 38 -46
81 23 23 33 24 62 9 16 -9 19 -8 16 3 -8 22 -64 22 -87 -1z M12390 210 c-22
-22 -27 -79 -8 -98 19 -19 66 -14 88 8 22 22 27 79 8 98 -19 19 -66 14 -88 -8z
m71 0 c25 -14 25 -54 -1 -80 -23 -23 -33 -24 -61 -10 -25 14 -25 54 1 80 23
23 33 24 61 10z M12536 201 c-3 -14 -8 -44 -11 -66 -8 -51 10 -26 19 27 8 41
35 63 66 53 22 -7 24 -21 11 -77 -5 -22 -5 -38 0 -38 5 0 9 6 9 13 0 68 51
125 85 97 15 -13 15 -35 -1 -92 -3 -10 -1 -18 4 -18 6 0 13 23 17 50 9 63 -5
84 -49 76 -17 -4 -35 -6 -41 -6 -101 8 -104 7 -109 -19z M12180 110 c0 -5 5
-10 10 -10 6 0 10 5 10 10 0 6 -4 10 -10 10 -5 0 -10 -4 -10 -10z"/>
</g>
</svg>
