<svg version="1.0" xmlns="http://www.w3.org/2000/svg"
  viewBox="0 0 1279.939606 510.291295"
 preserveAspectRatio="xMidYMid meet">
<metadata>
For more coloring pages, please visit ColoringAll.com
</metadata>
<g transform="translate(-0.662483,510.791295) scale(0.100000,-0.100000)"
fill="#000000" stroke="none">
<path d="M9265 5104 c-11 -3 -47 -12 -80 -22 -52 -15 -95 -16 -325 -12 -146 3
-767 5 -1380 4 -1177 -1 -1237 -2 -1608 -49 -359 -46 -476 -80 -525 -153 -16
-23 -128 -127 -250 -230 -121 -103 -313 -268 -425 -367 -112 -99 -221 -195
-242 -213 -43 -36 -10 -32 -415 -53 -110 -5 -247 -17 -304 -25 -57 -8 -122
-12 -145 -9 -74 12 -356 75 -606 135 -436 105 -437 105 -750 105 -312 0 -306
1 -686 -111 -547 -160 -758 -277 -1074 -594 -209 -211 -321 -367 -399 -562
l-42 -105 -2 -669 c-2 -774 4 -889 57 -1102 9 -34 28 -86 42 -114 21 -41 25
-61 21 -97 -3 -25 0 -55 5 -66 6 -11 54 -65 107 -120 53 -55 126 -138 161
-185 82 -109 219 -250 295 -305 139 -99 255 -139 385 -133 107 5 163 33 214
109 l33 49 63 -46 c75 -55 32 -50 560 -64 212 -6 606 -17 875 -25 1008 -30
2782 -66 3380 -68 l450 -2 95 37 c52 20 137 53 187 72 64 25 172 52 350 87
142 28 348 71 457 95 200 45 878 201 906 209 10 3 25 -13 44 -48 70 -125 230
-291 325 -336 54 -25 63 -26 226 -25 181 0 315 18 540 70 l110 26 85 88 c47
48 99 95 115 103 69 34 482 126 1055 236 484 93 593 110 755 121 337 23 526
52 589 93 64 42 115 155 159 357 34 153 54 337 67 610 17 389 20 425 41 496
53 183 51 163 34 316 -30 280 -102 563 -200 792 -41 97 -63 138 -154 291 -22
38 -41 75 -41 82 0 21 -114 156 -181 214 -35 31 -122 102 -193 157 -123 97
-131 102 -177 102 -109 0 -449 -59 -809 -142 -233 -53 -441 -94 -516 -103 -50
-5 -64 -4 -77 10 -20 19 -22 68 -4 83 37 31 1255 305 1404 317 32 2 72 14 100
30 77 42 201 133 219 161 11 17 18 55 22 118 l5 93 -36 39 -35 38 -28 -34
c-16 -18 -34 -40 -39 -47 -7 -9 -199 -42 -602 -103 -873 -131 -876 -131 -1198
-137 l-280 -5 -32 26 c-17 15 -71 84 -120 153 -98 141 -214 266 -284 307 -70
40 -203 64 -274 50z m230 -79 c32 -15 85 -54 119 -86 l61 -59 -64 26 c-83 33
-232 72 -351 93 -52 9 -94 20 -95 26 0 20 81 35 177 31 81 -2 105 -7 153 -31z
m-535 -14 c116 -16 500 -113 596 -151 91 -37 154 -72 180 -102 22 -25 25 -26
-111 33 -89 39 -109 43 -176 44 -87 0 -119 -17 -119 -65 0 -37 28 -171 89
-427 28 -117 51 -217 51 -223 0 -15 -23 -12 -86 11 -109 41 -107 37 -160 344
-25 148 -56 307 -68 354 -19 77 -24 86 -49 92 -15 4 -312 13 -660 20 -731 14
-1680 7 -2117 -15 -162 -9 -389 -20 -505 -26 -115 -7 -239 -10 -275 -8 l-65 3
40 13 c126 39 582 88 1035 111 253 13 2297 6 2400 -8z m-70 -130 l205 -6 18
-70 c28 -112 46 -239 36 -250 -5 -5 -179 -12 -412 -17 -883 -17 -1224 -33
-1724 -82 -103 -10 -173 -12 -260 -5 -144 11 -404 37 -456 45 l-38 6 36 41
c60 71 110 148 159 244 l46 92 107 4 c199 5 2076 4 2283 -2z m-2456 -40 c6
-10 -71 -140 -140 -237 -63 -88 -85 -98 -198 -91 -49 3 -93 10 -98 15 -6 6 14
41 52 93 34 46 73 105 87 132 46 92 56 97 182 97 60 0 112 -4 115 -9z m-615
-10 c21 -14 7 -64 -47 -166 -29 -55 -57 -94 -72 -102 -28 -14 -158 -17 -178
-4 -11 6 -8 20 16 67 16 33 37 84 47 114 9 30 23 61 31 69 22 24 174 40 203
22z m311 -3 c0 -29 -128 -219 -179 -265 -21 -20 -34 -23 -112 -23 -49 0 -89 2
-89 6 0 3 17 33 38 68 21 35 53 97 71 139 18 42 41 78 50 80 9 3 62 5 119 6
75 1 102 -2 102 -11z m-582 -40 c2 -27 -8 -62 -39 -128 l-43 -92 -162 4 c-89
2 -166 7 -171 12 -8 8 85 100 197 193 l65 54 75 -3 75 -3 3 -37z m3967 -3
c221 -58 463 -264 619 -528 53 -89 91 -176 101 -229 l7 -36 -88 -7 c-192 -16
-462 23 -582 84 -38 19 -43 27 -66 98 -26 84 -76 305 -101 447 -16 93 -19 168
-8 179 11 11 55 8 118 -8z m2635 -51 c0 -91 -32 -132 -165 -215 -87 -54 -101
-59 -85 -30 16 31 156 216 196 261 41 45 54 41 54 -16z m-140 -1 c-1 -5 -20
-35 -43 -68 -33 -47 -50 -61 -77 -67 -59 -12 -933 -146 -1132 -173 -179 -24
-517 -55 -598 -55 -36 0 -43 5 -80 55 -22 30 -40 60 -40 68 0 18 62 27 190 27
225 0 657 55 1540 195 150 24 240 30 240 18z m-140 -202 c0 -5 -8 -18 -17 -29
-23 -27 -107 -49 -793 -206 -569 -131 -770 -172 -792 -164 -7 3 -34 46 -61 95
l-47 90 92 7 c248 18 830 97 1293 175 233 39 325 48 325 32z m-6816 -13 c-3
-7 -50 -51 -105 -98 -55 -46 -141 -121 -191 -167 -93 -86 -146 -116 -68 -39
38 38 361 315 367 316 1 0 0 -6 -3 -12z m600 -28 c204 -17 371 -32 374 -34 2
-2 -10 -19 -26 -37 -67 -78 -80 -150 -37 -213 l24 -36 -624 0 c-344 0 -625 2
-625 4 0 6 351 300 395 330 35 24 46 27 95 22 30 -3 221 -20 424 -36z m3446
-10 c5 -7 13 -50 19 -94 6 -45 14 -98 17 -118 l6 -38 -39 0 c-21 1 -67 7 -103
15 -94 21 -264 29 -337 16 -144 -25 -184 -31 -313 -41 -74 -6 -237 -13 -362
-17 l-228 -6 44 45 c41 43 79 120 93 189 6 32 13 33 338 49 436 22 851 22 865
0z m-2930 -67 c-48 -55 -64 -97 -48 -131 41 -86 234 -79 355 14 23 17 37 39
46 71 l12 45 43 -5 c60 -7 79 -26 63 -65 -48 -115 -244 -181 -459 -154 -122
16 -186 44 -190 86 -5 40 15 81 56 117 42 38 87 58 126 59 l28 0 -32 -37z
m1664 -11 c-1 -54 -45 -120 -97 -145 -20 -10 -81 -28 -134 -39 -87 -18 -109
-19 -198 -9 -175 20 -220 41 -218 105 1 21 9 47 20 58 21 24 73 48 104 48 19
0 21 -3 13 -37 -12 -58 -8 -82 16 -108 67 -71 246 -42 332 53 21 23 40 54 44
69 11 46 23 54 73 51 l46 -3 -1 -43z m1351 -14 c32 -110 42 -235 13 -185 -7
14 -38 192 -38 225 0 26 10 10 25 -40z m-2035 9 c0 -2 -7 -18 -16 -35 -19 -39
-6 -96 32 -142 l26 -30 -34 0 c-55 0 -437 -19 -528 -26 l-85 -6 56 58 c63 65
89 109 89 149 l0 26 93 -6 c50 -3 124 -2 162 3 71 10 205 15 205 9z m1830
-202 c47 -9 254 -73 460 -142 l375 -126 325 6 c364 7 479 19 705 72 407 97
681 148 760 143 44 -3 49 -6 57 -33 4 -16 4 -33 0 -37 -4 -3 -124 -41 -267
-83 -242 -71 -385 -116 -462 -146 -29 -12 -38 -10 -110 24 -142 67 -235 59
-472 -39 -349 -144 -332 -138 -366 -120 -16 9 -74 57 -128 106 -53 48 -121
100 -149 114 -88 44 -166 29 -255 -48 -52 -46 -142 -179 -177 -264 -88 -209
-187 -701 -147 -726 18 -11 29 29 51 184 44 319 159 628 278 754 72 75 165 96
249 55 24 -12 89 -64 144 -116 103 -97 154 -129 192 -117 12 4 95 39 184 80
233 105 307 127 423 128 80 1 104 -3 148 -23 28 -13 52 -27 52 -30 0 -4 -11
-18 -25 -31 -32 -30 -41 -61 -60 -205 -20 -153 -36 -234 -45 -240 -5 -3 -43 9
-84 25 -104 42 -300 92 -361 93 -65 1 -152 -38 -191 -87 -16 -20 -32 -36 -35
-36 -4 0 -23 39 -44 88 -56 132 -123 240 -191 309 -111 112 -220 119 -334 20
-93 -81 -145 -172 -203 -352 -84 -261 -116 -473 -212 -1397 -69 -666 -101
-877 -161 -1070 -39 -127 -62 -160 -131 -191 -149 -66 -736 -194 -1291 -282
-895 -141 -1562 -182 -2836 -172 -720 6 -882 10 -1416 42 -942 57 -2092 193
-2540 302 -270 65 -456 187 -540 354 -39 77 -62 200 -82 439 -18 230 -18 1186
0 1325 35 253 153 448 456 751 196 196 292 265 507 368 117 56 357 151 429
171 14 3 -17 -16 -68 -44 -338 -182 -761 -499 -1043 -780 -149 -149 -213 -233
-236 -310 -32 -108 -18 -536 28 -856 48 -338 211 -1009 253 -1044 26 -22 27 7
2 106 -35 142 -73 336 -99 513 l-23 155 67 90 c37 50 74 105 84 124 11 22 25
106 41 250 13 119 30 261 38 316 15 97 54 297 59 300 1 1 211 -2 467 -6 256
-4 796 -13 1200 -19 404 -6 1683 -12 2842 -13 1158 -1 2108 -4 2111 -7 2 -3
52 -133 110 -290 59 -157 135 -356 170 -442 l63 -158 128 -87 c70 -47 145
-103 168 -122 l40 -36 49 -325 c47 -314 75 -476 85 -492 3 -4 9 -8 14 -8 24 0
23 159 -10 1035 -6 138 -12 462 -16 720 l-6 470 45 120 c163 435 417 883 555
979 22 15 53 31 68 36 40 13 232 4 334 -15z m2877 -6 c34 -13 74 -49 67 -60
-10 -16 -80 -10 -96 9 -27 31 -31 62 -7 62 4 0 20 -5 36 -11z m-99 -25 c27
-18 26 -51 0 -68 -27 -17 -52 4 -56 48 -3 29 0 36 15 36 10 0 29 -7 41 -16z
m-9168 -20 c52 -8 113 -20 135 -26 l40 -12 -50 -7 c-27 -4 -90 -8 -140 -8 -80
-1 -97 2 -150 28 -99 49 -100 53 -10 46 44 -3 123 -13 175 -21z m-243 -29 c40
-22 73 -43 73 -46 0 -3 -24 -18 -52 -34 -114 -61 -194 -120 -290 -213 -118
-114 -184 -197 -208 -259 l-17 -46 -249 -82 c-332 -110 -578 -211 -599 -245
-12 -20 25 -9 162 45 112 44 391 139 648 219 37 12 44 10 110 -20 197 -91 850
-239 1323 -299 331 -42 755 -57 1012 -35 601 52 2446 299 2687 360 92 24 222
85 354 166 273 168 382 231 474 272 149 66 517 213 522 209 2 -3 -36 -35 -84
-73 -106 -82 -389 -363 -536 -531 -58 -67 -177 -211 -263 -320 -87 -109 -178
-222 -203 -250 l-46 -53 -2195 0 c-2680 0 -4279 17 -4352 45 -10 4 -18 13 -18
20 0 50 435 497 772 793 200 176 242 219 302 309 53 80 187 113 441 110 l160
-2 72 -40z m5913 41 c0 -3 -70 -32 -155 -65 l-155 -61 -998 0 c-549 0 -1330 3
-1734 7 l-736 6 27 22 c58 49 58 49 426 56 193 4 780 10 1305 14 525 4 1083
11 1240 15 351 8 780 11 780 6z m2060 -111 c22 -35 20 -55 -5 -55 -16 0 -45
49 -45 75 0 27 28 16 50 -20z m64 19 c11 -27 7 -37 -9 -24 -16 14 -20 40 -6
40 5 0 12 -7 15 -16z m1516 3 c-571 -255 -939 -517 -881 -626 23 -42 61 -45
509 -38 l423 7 -5 -58 c-3 -31 -8 -115 -11 -187 -30 -658 -164 -1228 -350
-1490 -105 -148 -268 -256 -560 -369 -137 -53 -731 -244 -787 -253 -44 -7 -48
5 -19 53 57 94 235 194 807 458 116 54 227 111 246 127 56 45 88 135 56 155
-27 17 -138 -2 -551 -92 -115 -26 -210 -44 -213 -41 -3 2 7 49 21 103 54 207
92 475 180 1264 63 564 71 616 91 647 33 51 289 150 624 242 325 90 484 127
420 98z m-8965 -27 c223 -19 525 -77 525 -100 0 -6 -2 -10 -4 -10 -2 0 -137
-34 -301 -76 l-297 -75 -56 53 c-32 30 -95 83 -142 117 -107 81 -104 77 -96
90 9 14 209 14 371 1z m5437 -32 c-121 -180 -313 -581 -386 -805 -64 -199 -65
-235 -41 -1063 8 -278 16 -581 19 -675 l5 -170 -14 80 c-60 336 -175 1198
-182 1365 -7 163 5 221 92 441 129 324 306 628 474 812 29 31 55 57 57 57 3 0
-8 -19 -24 -42z m3701 21 c67 -35 257 -218 257 -247 0 -5 -20 -13 -45 -20 -38
-10 -51 -20 -75 -58 -16 -26 -39 -75 -50 -109 -11 -34 -27 -71 -34 -81 -13
-17 -15 -16 -21 21 -12 70 -21 90 -47 102 -28 14 -24 14 -358 -31 -242 -33
-375 -43 -366 -28 20 32 514 371 630 431 64 34 77 36 109 20z m-9564 -21 c52
-32 177 -124 239 -176 l53 -46 -28 -15 c-53 -28 -850 -237 -861 -226 -12 12
35 79 118 168 129 137 222 212 333 268 54 27 101 49 104 49 3 0 22 -10 42 -22z
m-919 -7 c0 -12 -74 -79 -215 -196 -397 -327 -746 -678 -820 -825 -25 -50 -46
-60 -120 -60 -39 0 -62 -22 -42 -39 8 -6 35 -14 61 -17 25 -4 46 -8 46 -9 0
-2 -9 -45 -19 -96 -11 -52 -24 -130 -31 -174 -17 -120 -20 -128 -37 -80 -28
80 -93 329 -93 355 0 39 93 144 389 441 345 344 519 491 756 640 111 69 125
76 125 60z m6639 -20 c-13 -16 -64 -75 -112 -132 -100 -118 -247 -334 -332
-489 -32 -58 -93 -184 -135 -280 -75 -171 -77 -175 -111 -181 -64 -12 -259
-20 -259 -10 0 32 271 384 449 584 122 136 508 537 518 537 3 0 -5 -13 -18
-29z m-503 -47 c-49 -25 -182 -85 -296 -134 -260 -111 -387 -174 -421 -211
-26 -28 -26 -28 -74 -13 -27 8 -119 23 -204 34 -170 22 -265 38 -441 75 -385
80 -629 103 -1295 125 -772 25 -1173 46 -1320 70 -33 5 -63 10 -67 10 -5 0 -8
4 -8 9 0 12 213 39 405 52 238 15 1208 26 2585 27 l1225 1 -89 -45z m4034 22
c0 -3 -93 -69 -207 -148 -298 -206 -354 -262 -285 -289 40 -16 216 -4 452 31
320 48 305 48 326 14 17 -25 19 -50 19 -229 0 -110 -6 -243 -14 -295 -55 -412
-161 -896 -252 -1157 -43 -124 -138 -317 -191 -389 -112 -150 -192 -185 -841
-370 -202 -57 -411 -120 -465 -139 -110 -40 -120 -41 -101 -18 24 29 130 70
365 142 390 119 625 209 793 303 97 55 231 187 295 290 177 288 306 897 332
1574 l7 182 -414 -5 c-416 -5 -518 0 -527 26 -7 21 130 145 238 216 73 48 454
264 468 265 1 0 2 -2 2 -4z m-8014 -116 c307 -34 536 -49 904 -60 1053 -31
1131 -37 1545 -116 287 -55 461 -83 598 -98 94 -10 133 -18 147 -31 25 -22 25
-32 3 -39 -49 -15 -1172 -172 -1758 -246 -757 -96 -1007 -115 -1394 -107 -287
5 -395 16 -731 68 -436 68 -1027 201 -1099 248 -40 26 -11 35 653 202 885 223
825 213 1132 179z m-2526 6 c0 -3 -71 -56 -157 -118 -342 -245 -656 -521 -784
-690 -90 -120 -94 -140 -94 -468 0 -151 3 -347 7 -435 6 -153 6 -157 -7 -85
-39 221 -56 770 -26 853 55 157 434 508 911 844 151 106 150 106 150 99z
m6848 -148 c-95 -160 -238 -475 -309 -683 -33 -96 -34 -105 -33 -240 1 -86 11
-213 27 -330 14 -104 37 -275 51 -380 14 -104 28 -209 31 -232 5 -32 3 -43 -7
-43 -18 0 -159 88 -213 134 -43 35 -90 107 -83 126 2 5 39 -7 82 -26 43 -19
85 -33 93 -30 16 6 16 -1 -17 276 -28 230 -39 347 -50 526 l-9 162 108 210
c121 234 222 405 312 530 33 45 62 82 64 82 2 0 -19 -37 -47 -82z m1640 53
c77 -40 134 -112 209 -262 46 -93 96 -219 90 -225 -2 -2 -18 31 -35 74 -40 98
-115 231 -160 283 -37 43 -78 67 -162 94 -80 26 -96 35 -79 46 24 15 98 10
137 -10z m2668 -68 c32 -16 44 -33 104 -158 108 -221 195 -502 246 -785 20
-111 25 -353 8 -370 -14 -14 -16 -5 -44 225 -47 376 -118 675 -199 833 -37 73
-81 113 -168 153 -88 40 -95 51 -67 94 20 30 66 33 120 8z m-2826 1 c0 -3 -18
-26 -39 -52 -105 -126 -209 -449 -246 -765 -35 -306 -42 -806 -14 -1172 45
-605 198 -1179 378 -1418 47 -62 50 -73 19 -80 -82 -20 -285 -40 -413 -41
l-150 -1 -63 34 c-78 42 -175 144 -254 265 -32 50 -58 94 -58 98 0 14 94 78
133 90 48 15 67 41 67 93 0 22 18 100 39 172 76 250 109 472 186 1248 70 700
117 1017 180 1210 40 121 129 299 157 312 24 12 78 17 78 7z m-2285 -27 c-39
-26 -131 -76 -178 -96 -84 -36 -39 -2 71 54 103 52 148 70 107 42z m2421 -25
c30 -24 55 -66 63 -104 9 -44 31 -49 31 -6 l1 33 25 -30 c40 -48 114 -207 124
-268 5 -30 20 -78 35 -107 36 -72 104 -345 115 -460 4 -52 15 -120 24 -150 35
-125 46 -321 20 -372 -15 -30 -15 -32 9 -54 22 -20 26 -34 32 -121 5 -54 5
-186 1 -293 -4 -107 -8 -280 -10 -385 -4 -251 -21 -348 -78 -428 l-41 -59 29
4 c26 3 29 0 32 -27 1 -16 -8 -73 -22 -125 -56 -221 -186 -483 -186 -375 0 37
-13 30 -35 -17 -15 -33 -26 -44 -47 -46 -51 -6 -128 49 -128 91 0 14 -11 32
-28 44 -33 24 -98 144 -136 251 -32 90 -32 100 -1 108 14 3 25 10 25 14 0 9
-25 31 -53 45 -27 13 -42 59 -83 253 -39 186 -41 207 -16 221 16 9 15 13 -9
58 -15 26 -33 75 -40 108 -16 79 -18 310 -2 310 25 0 25 16 -1 54 -23 33 -29
55 -37 138 -4 54 -8 130 -9 169 0 63 3 73 23 87 l22 15 -20 22 c-18 20 -20 36
-20 164 0 77 4 163 9 190 l8 49 26 -29 c26 -28 27 -28 30 -7 2 12 -8 42 -22
66 -19 32 -26 58 -26 98 0 64 38 331 49 342 4 4 22 -4 41 -18 39 -29 40 -29
40 -12 0 8 -16 35 -37 61 l-36 47 17 62 c22 80 52 147 65 147 6 0 17 -13 26
-30 17 -33 45 -40 45 -12 0 10 -13 39 -30 65 l-29 46 42 63 c40 60 115 128
140 128 7 0 22 -8 33 -18z m2554 -114 c-12 -18 -33 -57 -47 -86 -14 -29 -27
-52 -29 -50 -5 6 28 142 38 156 6 6 22 12 35 12 l25 0 -22 -32z m-11501 -118
c-361 -381 -423 -449 -447 -484 l-27 -40 2 -381 c1 -291 5 -389 15 -413 l13
-31 43 30 c23 16 45 29 47 29 3 0 5 -17 5 -37 -1 -49 -26 -105 -81 -173 l-43
-55 -8 35 c-4 19 -13 254 -20 522 l-12 488 50 72 c60 89 288 320 449 457 66
55 121 101 123 101 3 0 -47 -54 -109 -120z m11624 98 c9 -7 22 -31 29 -52 14
-43 34 -58 40 -30 2 11 19 -16 41 -64 46 -98 124 -397 137 -527 5 -49 16 -124
24 -165 22 -115 30 -230 17 -275 -9 -33 -8 -43 7 -65 14 -21 17 -57 20 -220 4
-210 -11 -538 -29 -635 -6 -33 -19 -75 -30 -93 -23 -40 -23 -42 -3 -42 14 0
16 -8 10 -53 -12 -91 -47 -220 -81 -294 -33 -71 -46 -85 -61 -62 -4 7 -12 -1
-20 -20 -8 -19 -20 -31 -32 -31 -27 0 -72 38 -72 59 0 10 -13 35 -29 55 -48
60 -94 182 -96 251 -1 33 -8 74 -17 90 -26 50 -38 104 -53 240 -8 72 -24 186
-34 255 -11 69 -20 146 -21 173 0 40 3 47 20 47 25 0 25 3 -4 48 -24 37 -24
37 -24 327 0 160 2 294 5 298 3 4 11 3 19 -4 24 -20 28 -2 9 48 -21 53 -21
147 -2 258 12 69 13 70 40 67 16 -2 27 1 25 5 -2 4 -13 25 -23 45 -18 36 -18
39 -1 112 19 83 29 97 46 66 6 -11 17 -20 25 -20 13 0 13 4 0 36 -28 68 -11
124 51 165 34 22 45 23 67 7z m-1923 -131 c25 -7 44 -18 43 -24 -1 -6 -14 -75
-28 -154 -33 -184 -33 -183 -51 -168 -8 6 -39 12 -70 13 -48 1 -59 -2 -75 -23
-30 -37 -21 -72 24 -96 48 -26 48 -58 0 -63 -24 -2 -34 -9 -38 -25 -9 -42 -24
-260 -18 -270 10 -17 104 0 129 24 l23 22 7 -28 c9 -34 -2 -231 -16 -304 -5
-30 -18 -63 -27 -74 -20 -21 -31 -180 -32 -459 -1 -147 -2 -158 -21 -168 -45
-24 -47 -13 -66 395 -25 559 -69 948 -135 1209 -11 44 -18 89 -15 101 5 21 64
75 111 104 26 15 192 8 255 -12z m216 -63 c75 -25 74 -22 58 -169 -8 -71 -23
-213 -34 -315 -42 -384 -106 -786 -161 -1018 -42 -176 -45 -172 117 -138 65
14 209 46 319 71 110 25 232 48 270 52 l70 6 -35 -38 c-26 -27 -92 -65 -250
-142 -540 -263 -624 -306 -701 -358 -45 -30 -84 -54 -86 -52 -4 5 16 268 23
290 3 10 23 25 43 33 22 8 43 26 50 40 7 16 13 128 17 297 6 232 9 278 25 313
10 23 25 101 34 185 10 79 21 152 26 162 6 10 21 17 39 17 48 0 85 41 103 113
22 85 39 239 35 307 l-3 55 -55 8 c-83 12 -85 16 -73 145 14 138 21 152 77
152 23 0 65 -7 92 -16z m-287 -317 c15 -19 4 -27 -35 -27 -34 0 -50 12 -39 30
9 15 61 12 74 -3z m207 -69 c-15 -156 -36 -273 -55 -298 -14 -19 -27 -25 -56
-25 -34 0 -39 3 -46 29 -12 44 16 260 43 328 11 29 24 35 82 37 l39 1 -7 -72z
m-3006 -75 c0 -16 -131 -476 -139 -491 -11 -19 -19 0 -86 183 -58 161 -87 260
-83 282 3 15 17 19 93 24 148 9 215 9 215 2z m2790 -47 c0 -16 -21 -26 -56
-26 -28 0 -31 15 -6 29 25 15 62 13 62 -3z m0 -91 c0 -15 -43 -12 -48 3 -3 10
4 13 22 10 15 -2 26 -7 26 -13z m-2725 -359 c19 -154 33 -281 30 -284 -9 -9
-53 9 -111 46 -75 49 -89 78 -81 170 5 60 89 390 105 417 9 15 18 -37 57 -349z
m2683 283 c3 -17 -23 -33 -39 -23 -5 3 -9 14 -9 25 0 15 6 20 22 17 13 -2 24
-10 26 -19z m-9954 -169 c46 -181 50 -210 33 -251 -16 -37 -63 -86 -73 -76 -4
3 -11 83 -16 177 -10 169 -4 310 12 294 5 -5 25 -70 44 -144z m11653 18 c-3
-8 -6 -5 -6 6 -1 11 2 17 5 13 3 -3 4 -12 1 -19z m-22 -338 c-41 -565 -86
-1152 -95 -1225 -6 -50 -16 -85 -26 -95 -15 -14 -16 -13 -9 10 4 14 9 73 12
133 l5 107 -61 0 c-104 0 -657 -87 -701 -110 -20 -11 -30 -69 -30 -181 l0 -79
51 0 c27 0 82 5 120 11 127 19 83 2 -63 -25 -243 -46 -602 -124 -861 -188
-136 -34 -250 -58 -254 -54 -16 15 25 61 80 91 32 18 98 45 145 60 109 34 129
47 152 97 14 31 15 46 7 67 -8 22 -3 44 32 131 23 58 45 111 50 118 4 7 86 33
182 58 336 86 664 192 746 240 81 47 184 167 261 304 78 140 172 418 238 710
37 161 41 125 19 -180z m100 -450 c41 -326 133 -652 223 -788 19 -29 32 -55
29 -59 -19 -18 -302 -59 -357 -51 l-25 3 12 235 c17 339 62 1000 70 1035 5 20
11 -15 19 -110 7 -77 20 -196 29 -265z m-11888 258 c-3 -8 -6 -5 -6 6 -1 11 2
17 5 13 3 -3 4 -12 1 -19z m7770 -690 c-3 -7 -5 -2 -5 12 0 14 2 19 5 13 2 -7
2 -19 0 -25z m2499 -290 c-11 -61 -73 -172 -108 -195 -30 -20 -164 -63 -197
-63 -24 0 -9 102 22 149 29 44 70 68 187 112 99 37 104 37 96 -3z m1129 3
c-52 -23 -66 -41 -76 -98 -10 -53 -33 -83 -49 -67 -6 6 -13 34 -17 63 -9 78
-19 80 -258 56 -47 -4 -48 -4 -15 6 44 12 361 57 415 58 l40 1 -40 -19z m173
-68 c-3 -36 -6 -39 -53 -54 -27 -9 -71 -20 -97 -23 l-48 -7 0 34 c0 20 7 41
18 50 21 20 80 35 140 36 l43 1 -3 -37z m-368 -42 c18 -35 12 -61 -17 -72 -51
-19 -221 -52 -237 -46 -20 8 -22 75 -3 100 8 11 37 19 87 25 127 16 158 14
170 -7z m-990 -156 c0 -8 -17 -23 -37 -34 -52 -26 -254 -94 -260 -87 -24 24
54 68 197 110 102 30 100 30 100 11z m-9470 -256 c129 -33 258 -72 285 -85 28
-14 70 -36 95 -49 38 -20 74 -26 240 -39 421 -34 1116 -79 1500 -96 383 -17
2022 -29 2920 -21 l855 7 80 41 c139 70 204 90 410 127 110 19 304 54 430 76
275 49 567 109 764 156 79 19 146 32 149 29 12 -12 -124 -61 -282 -100 -185
-47 -741 -168 -1101 -241 -263 -53 -280 -58 -510 -142 l-180 -65 -480 12
c-264 6 -633 16 -820 21 -187 5 -594 14 -905 20 -1635 30 -2034 39 -2622 62
l-317 11 -126 93 c-135 100 -183 122 -315 149 -143 28 -278 63 -426 111 -192
61 -215 83 -29 28 83 -25 256 -72 385 -105z m-415 46 c51 -19 213 -64 361
-100 282 -69 321 -85 366 -148 l21 -29 -59 -59 -59 -59 -75 6 c-164 13 -266
53 -400 153 -99 75 -283 271 -254 271 3 0 48 -16 99 -35z m702 -29 c684 -100
1553 -180 2348 -216 368 -17 362 -18 -55 -14 -483 4 -556 8 -1861 92 l-275 18
-70 39 c-38 22 -116 54 -174 72 -58 17 -100 32 -93 33 6 0 87 -11 180 -24z
m5773 -140 c0 -3 -40 -27 -89 -55 l-88 -51 -739 2 c-531 1 -683 3 -539 9 471
18 832 42 1185 78 178 19 270 24 270 17z m-2872 -103 c-10 -2 -28 -2 -40 0
-13 2 -5 4 17 4 22 1 32 -1 23 -4z M9843 4368 c-17 -29 -43 -79 -57 -112 -59
-132 -10 -101 59 38 43 86 54 126 37 126 -4 0 -21 -24 -39 -52z M9931 4327
c-95 -129 -134 -221 -61 -143 62 64 132 196 105 196 -2 0 -22 -24 -44 -53z
M8915 3148 c-22 -5 -159 -39 -305 -74 -404 -98 -502 -126 -492 -136 21 -21
443 58 682 127 116 34 205 69 216 86 7 11 -49 10 -101 -3z M2705 2163 c-115
-16 -306 -84 -504 -178 -168 -81 -231 -122 -231 -150 0 -19 6 -24 43 -29 192
-27 1210 -59 2567 -81 525 -8 971 -17 990 -18 19 -2 -620 -4 -1420 -5 -800 -1
-1473 -5 -1495 -9 l-40 -6 30 -9 c46 -14 945 -26 2205 -30 1187 -3 1200 -3
1200 37 0 8 -1 15 -3 15 -19 0 -995 144 -1557 230 -1393 213 -1671 249 -1785
233z m425 -88 c337 -49 743 -114 815 -131 55 -12 41 -13 -180 -8 -436 9 -1285
48 -1370 63 l-40 7 60 23 c33 13 110 36 170 52 151 39 239 38 545 -6z m70
-165 c1208 -51 1346 -58 1610 -91 134 -17 247 -33 250 -36 7 -8 -1098 4 -1580
17 -885 23 -1244 40 -1264 61 -8 7 2 22 32 51 l44 40 96 -6 c54 -4 419 -20
812 -36z m-1006 8 c-24 -43 -49 -58 -93 -58 l-46 1 65 34 c71 37 85 41 74 23z
M7475 664 c-103 -27 -594 -95 -930 -129 -320 -32 -2128 -41 -2845 -14 -264 10
-629 33 -1405 89 -225 16 -448 32 -495 35 -104 8 -100 -9 5 -24 286 -40 1779
-142 2385 -162 350 -12 1423 -5 1915 11 500 17 1445 144 1463 198 5 15 -26 14
-93 -4z M12043 3903 c-16 -21 -35 -48 -42 -61 -15 -28 -5 -48 15 -31 14 11 74
111 74 123 0 16 -19 3 -47 -31z M9200 687 c-108 -90 -165 -145 -158 -152 16
-16 154 87 204 152 43 57 22 57 -46 0z M9265 601 c-114 -95 -170 -149 -163
-156 18 -18 187 114 239 186 33 47 1 35 -76 -30z M9305 424 c-73 -57 -125
-105 -125 -116 0 -19 104 47 168 106 30 28 42 56 25 56 -5 0 -35 -21 -68 -46z
M9360 312 c-83 -56 -127 -97 -112 -106 20 -12 198 121 191 143 -3 9 -29 -3
-79 -37z M9614 3278 c-74 -65 -141 -262 -186 -550 -21 -133 -23 -175 -23 -598
0 -490 10 -665 50 -907 65 -384 147 -642 234 -736 61 -67 113 -73 171 -21 73
67 128 222 181 519 23 125 24 148 23 650 0 633 -9 743 -95 1138 -96 438 -224
620 -355 505z m110 -39 c99 -77 219 -529 266 -999 17 -173 25 -844 11 -1014
-23 -278 -72 -520 -131 -635 -31 -62 -64 -101 -86 -101 -18 0 -70 55 -100 106
l-26 44 51 75 c108 162 151 404 151 855 0 454 -59 928 -151 1217 -35 110 -51
145 -103 222 -20 29 -36 60 -36 70 0 45 90 181 119 181 5 0 20 -9 35 -21z
m-104 -386 c60 -143 125 -467 156 -783 32 -325 21 -857 -22 -1070 -18 -87 -67
-219 -93 -252 l-18 -22 -17 32 c-20 39 -68 236 -95 395 -90 520 -93 1508 -4
1781 l15 48 24 -28 c13 -16 37 -61 54 -101z M12308 3243 c-55 -58 -109 -254
-129 -468 -20 -206 -17 -808 4 -985 38 -316 87 -556 136 -665 34 -75 85 -108
140 -89 31 11 72 89 96 182 45 180 71 553 61 885 -17 592 -95 1017 -209 1135
-38 39 -65 41 -99 5z m81 -49 c66 -84 141 -422 161 -729 16 -245 13 -869 -5
-1015 -39 -317 -101 -436 -171 -330 -28 42 -28 43 -12 84 94 240 88 215 99
394 15 224 6 731 -16 882 -37 266 -91 475 -140 548 -14 20 -25 46 -25 57 1 43
55 135 80 135 5 0 18 -12 29 -26z m-89 -251 c25 -68 63 -228 84 -363 40 -246
47 -985 11 -1149 -21 -93 -46 -163 -62 -168 -39 -13 -96 382 -115 808 -15 328
5 819 37 917 9 26 24 10 45 -45z M10486 2901 c-29 -32 -45 -91 -46 -164 l0
-68 32 3 c49 5 72 44 76 132 6 104 -20 143 -62 97z m16 -132 c-9 -42 -9 -43
-17 -16 -4 15 -4 44 0 65 7 33 8 35 17 16 6 -13 6 -37 0 -65z M10851 1031
c-21 -38 -61 -195 -61 -237 0 -54 18 -58 53 -11 58 76 84 167 66 231 -11 40
-41 49 -58 17z m16 -83 c-3 -8 -6 -5 -6 6 -1 11 2 17 5 13 3 -3 4 -12 1 -19z
M940 325 c-8 -2 -54 -7 -102 -10 -49 -4 -88 -10 -88 -15 0 -14 61 -30 114 -30
52 0 123 27 119 45 -2 11 -20 15 -43 10z M881 231 c-23 -15 -2 -31 42 -31 52
0 80 15 57 30 -19 12 -80 13 -99 1z M11226 194 c-10 -47 -15 -88 -12 -91 5 -6
9 7 30 110 7 37 10 67 6 67 -4 0 -15 -39 -24 -86z M11540 270 c0 -5 5 -10 10
-10 6 0 10 5 10 10 0 6 -4 10 -10 10 -5 0 -10 -4 -10 -10z M12086 194 c-10
-47 -15 -88 -12 -91 5 -6 9 7 30 110 7 37 10 67 6 67 -4 0 -15 -39 -24 -86z
M12166 269 c-3 -8 -10 -41 -16 -74 -6 -33 -14 -68 -16 -77 -3 -10 -1 -18 3
-18 10 0 46 171 38 178 -2 3 -7 -1 -9 -9z M10929 241 c-38 -38 -41 -101 -7
-125 29 -20 79 -20 104 0 18 14 18 15 1 10 -53 -17 -69 -17 -92 -2 -69 45 21
166 94 126 12 -6 21 -7 21 -1 0 12 -25 21 -62 21 -19 0 -39 -10 -59 -29z
M11930 189 c-28 -45 -49 -83 -47 -85 2 -3 12 7 21 21 14 21 24 25 66 25 43 0
50 -3 50 -19 0 -11 5 -23 10 -26 6 -3 10 -3 10 1 0 20 -44 164 -51 164 -4 0
-30 -37 -59 -81z m75 4 l7 -33 -42 0 c-42 0 -42 0 -28 23 8 12 21 32 29 44 15
25 22 18 34 -34z M11080 210 c-22 -22 -27 -79 -8 -98 19 -19 66 -14 88 8 22
22 27 79 8 98 -19 19 -66 14 -88 -8z m71 0 c25 -14 25 -54 -1 -80 -23 -23 -33
-24 -61 -10 -25 14 -25 54 1 80 23 23 33 24 61 10z M11290 210 c-22 -22 -27
-79 -8 -98 19 -19 66 -14 88 8 22 22 27 79 8 98 -19 19 -66 14 -88 -8z m71 0
c25 -14 25 -54 -1 -80 -23 -23 -33 -24 -61 -10 -25 14 -25 54 1 80 23 23 33
24 61 10z M11436 204 c-3 -16 -8 -47 -11 -69 -8 -51 10 -26 19 27 5 27 15 42
34 53 18 10 22 14 10 15 -9 0 -20 -5 -24 -11 -5 -8 -9 -8 -14 1 -5 8 -10 3
-14 -16z M11537 223 c-2 -4 -7 -26 -11 -48 -4 -22 -9 -48 -12 -57 -3 -10 -1
-18 4 -18 4 0 14 28 20 62 11 58 10 81 -1 61z M11595 220 c-1 -3 -5 -23 -9
-45 -4 -22 -9 -48 -12 -57 -3 -10 -1 -18 4 -18 5 0 13 20 17 45 7 53 44 87 74
68 17 -11 19 -28 8 -80 -4 -18 -3 -33 2 -33 16 0 24 99 11 115 -12 14 -87 18
-95 5z M11760 210 c-22 -22 -27 -79 -8 -98 7 -7 24 -12 38 -12 14 0 31 5 38
12 9 9 12 8 12 -5 0 -9 -12 -24 -26 -34 -21 -13 -32 -15 -55 -6 -16 6 -29 8
-29 3 0 -24 81 -27 102 -2 18 19 50 162 37 162 -5 0 -9 -5 -9 -10 0 -7 -6 -7
-19 0 -30 16 -59 12 -81 -10z m71 0 c29 -16 25 -65 -6 -86 -56 -37 -103 28
-55 76 23 23 33 24 61 10z M12261 211 c-23 -23 -28 -80 -9 -99 19 -19 88 -13
88 9 0 5 -11 4 -24 -2 -54 -25 -89 38 -46 81 23 23 33 24 62 9 16 -9 19 -8 16
3 -8 22 -64 22 -87 -1z M12390 210 c-22 -22 -27 -79 -8 -98 19 -19 66 -14 88
8 22 22 27 79 8 98 -19 19 -66 14 -88 -8z m71 0 c25 -14 25 -54 -1 -80 -23
-23 -33 -24 -61 -10 -25 14 -25 54 1 80 23 23 33 24 61 10z M12536 201 c-3
-14 -8 -44 -11 -66 -8 -51 10 -26 19 27 8 41 35 63 66 53 22 -7 24 -21 11 -77
-5 -22 -5 -38 0 -38 5 0 9 6 9 13 0 68 51 125 85 97 15 -13 15 -35 -1 -92 -3
-10 -1 -18 4 -18 6 0 13 23 17 50 9 63 -5 84 -49 76 -17 -4 -35 -6 -41 -6
-101 8 -104 7 -109 -19z M12180 110 c0 -5 5 -10 10 -10 6 0 10 5 10 10 0 6 -4
10 -10 10 -5 0 -10 -4 -10 -10z"/>
</g>
</svg>
